<svg xmlns="http://www.w3.org/2000/svg" xmlns:xlink="http://www.w3.org/1999/xlink" width="1366" zoomAndPan="magnify" viewBox="0 0 1024.5 576" height="768" preserveAspectRatio="xMidYMid meet" version="1.0"><path fill="#32b744" d="M 780.855469 288.007812 C 780.855469 315.503906 749.945312 337.792969 741.882812 362.605469 C 733.527344 388.320312 745.132812 424.445312 729.539062 445.851562 C 713.789062 467.46875 675.714844 467.527344 654.074219 483.261719 C 632.648438 498.839844 620.914062 535.089844 595.175781 543.441406 C 570.339844 551.496094 539.628906 529.324219 512.105469 529.324219 C 484.582031 529.324219 453.871094 551.496094 429.035156 543.4375 C 403.296875 535.089844 391.5625 498.835938 370.136719 483.257812 C 348.496094 467.523438 310.421875 467.46875 294.671875 445.847656 C 279.082031 424.441406 290.6875 388.316406 282.328125 362.601562 C 274.265625 337.789062 243.355469 315.503906 243.355469 288.007812 C 243.355469 260.507812 274.265625 238.222656 282.328125 213.40625 C 290.683594 187.691406 279.078125 151.570312 294.671875 130.164062 C 310.421875 108.542969 348.496094 108.484375 370.136719 92.75 C 391.5625 77.171875 403.296875 40.925781 429.035156 32.574219 C 453.871094 24.515625 484.582031 46.6875 512.105469 46.6875 C 539.628906 46.6875 570.339844 24.515625 595.175781 32.578125 C 620.914062 40.925781 632.648438 77.175781 654.074219 92.753906 C 675.714844 108.488281 713.789062 108.546875 729.539062 130.167969 C 745.128906 151.570312 733.523438 187.695312 741.882812 213.410156 C 749.945312 238.226562 780.855469 260.507812 780.855469 288.007812 Z M 780.855469 288.007812 " fill-opacity="1" fill-rule="nonzero"/><path fill="#ffffff" d="M 469.582031 369.632812 C 469.285156 369.632812 468.988281 369.625 468.691406 369.613281 C 463.636719 369.359375 458.921875 366.988281 455.71875 363.074219 L 413.195312 311.199219 C 406.921875 303.546875 408.046875 292.273438 415.703125 286.007812 C 423.355469 279.75 434.648438 280.867188 440.914062 288.515625 L 470.902344 325.097656 L 584.484375 211.625 C 591.488281 204.632812 602.828125 204.636719 609.824219 211.625 C 616.820312 218.613281 616.820312 229.949219 609.824219 236.9375 L 482.25 364.390625 C 478.882812 367.757812 474.324219 369.632812 469.582031 369.632812 Z M 469.582031 369.632812 " fill-opacity="1" fill-rule="nonzero"/></svg>