<svg xmlns="http://www.w3.org/2000/svg" xmlns:xlink="http://www.w3.org/1999/xlink" width="1366" zoomAndPan="magnify" viewBox="0 0 1024.5 576" height="768" preserveAspectRatio="xMidYMid meet" version="1.0"><defs><clipPath id="2e7bd6d450"><path d="M 337 21.273438 L 775 21.273438 L 775 319 L 337 319 Z M 337 21.273438 " clip-rule="nonzero"/></clipPath><clipPath id="b22938b524"><path d="M 337 21.273438 L 775.183594 21.273438 L 775.183594 47 L 337 47 Z M 337 21.273438 " clip-rule="nonzero"/></clipPath></defs><g clip-path="url(#2e7bd6d450)"><path fill="#759df5" d="M 337.792969 33.804688 C 337.792969 26.910156 343.382812 21.316406 350.28125 21.316406 L 762.378906 21.316406 C 769.277344 21.316406 774.867188 26.910156 774.867188 33.804688 L 774.867188 306.042969 C 774.867188 312.9375 769.277344 318.527344 762.378906 318.527344 L 350.28125 318.527344 C 343.382812 318.527344 337.792969 312.9375 337.792969 306.042969 Z M 337.792969 33.804688 " fill-opacity="1" fill-rule="nonzero"/></g><g clip-path="url(#b22938b524)"><path fill="#1455e2" d="M 337.605469 34.375 C 337.605469 27.480469 343.195312 21.886719 350.09375 21.886719 L 762.601562 21.886719 C 769.5 21.886719 775.089844 27.480469 775.089844 34.375 L 775.089844 46.386719 L 337.605469 46.386719 Z M 337.605469 34.375 " fill-opacity="1" fill-rule="nonzero"/></g><path fill="#759df5" d="M 366.515625 34.527344 C 366.515625 37.445312 364.277344 39.8125 361.519531 39.8125 C 358.761719 39.8125 356.523438 37.445312 356.523438 34.527344 C 356.523438 31.609375 358.761719 29.242188 361.519531 29.242188 C 364.277344 29.242188 366.515625 31.609375 366.515625 34.527344 Z M 366.515625 34.527344 " fill-opacity="1" fill-rule="nonzero"/><path fill="#759df5" d="M 382.75 34.527344 C 382.75 37.445312 380.511719 39.8125 377.753906 39.8125 C 374.996094 39.8125 372.757812 37.445312 372.757812 34.527344 C 372.757812 31.609375 374.996094 29.242188 377.753906 29.242188 C 380.511719 29.242188 382.75 31.609375 382.75 34.527344 Z M 382.75 34.527344 " fill-opacity="1" fill-rule="nonzero"/><path fill="#759df5" d="M 398.984375 34.527344 C 398.984375 37.445312 396.746094 39.8125 393.988281 39.8125 C 391.230469 39.8125 388.992188 37.445312 388.992188 34.527344 C 388.992188 31.609375 391.230469 29.242188 393.988281 29.242188 C 396.746094 29.242188 398.984375 31.609375 398.984375 34.527344 Z M 398.984375 34.527344 " fill-opacity="1" fill-rule="nonzero"/><path fill="#f2f2f2" d="M 501.382812 119.972656 C 501.382812 144.800781 481.257812 164.929688 456.425781 164.929688 C 431.597656 164.929688 411.46875 144.800781 411.46875 119.972656 C 411.46875 95.144531 431.597656 75.015625 456.425781 75.015625 C 481.257812 75.015625 501.382812 95.144531 501.382812 119.972656 Z M 501.382812 119.972656 " fill-opacity="1" fill-rule="nonzero"/><path fill="#f2f2f2" d="M 385.246094 203.640625 C 385.246094 198.125 389.71875 193.652344 395.234375 193.652344 L 517.617188 193.652344 C 523.136719 193.652344 527.609375 198.125 527.609375 203.640625 C 527.609375 209.15625 523.136719 213.632812 517.617188 213.632812 L 395.234375 213.632812 C 389.71875 213.632812 385.246094 209.15625 385.246094 203.640625 Z M 385.246094 203.640625 " fill-opacity="1" fill-rule="nonzero"/><path fill="#f2f2f2" d="M 385.246094 238.605469 C 385.246094 233.089844 389.71875 228.617188 395.234375 228.617188 L 517.617188 228.617188 C 523.136719 228.617188 527.609375 233.089844 527.609375 238.605469 C 527.609375 244.125 523.136719 248.597656 517.617188 248.597656 L 395.234375 248.597656 C 389.71875 248.597656 385.246094 244.125 385.246094 238.605469 Z M 385.246094 238.605469 " fill-opacity="1" fill-rule="nonzero"/><path fill="#253036" d="M 422.710938 280.441406 C 422.710938 271.128906 430.257812 263.582031 439.566406 263.582031 L 472.035156 263.582031 C 481.347656 263.582031 488.894531 271.128906 488.894531 280.441406 C 488.894531 289.753906 481.347656 297.300781 472.035156 297.300781 L 439.566406 297.300781 C 430.257812 297.300781 422.710938 289.753906 422.710938 280.441406 Z M 422.710938 280.441406 " fill-opacity="1" fill-rule="nonzero"/><path fill="#759df5" d="M 451.183594 276.429688 C 451.671875 275.945312 452.464844 275.949219 452.949219 276.441406 L 456.945312 280.484375 L 452.9375 284.449219 C 452.449219 284.9375 451.65625 284.933594 451.171875 284.441406 C 450.6875 283.953125 450.691406 283.160156 451.179688 282.675781 L 452.140625 281.722656 L 441.441406 281.722656 C 440.75 281.722656 440.191406 281.164062 440.191406 280.476562 C 440.191406 279.785156 440.75 279.226562 441.441406 279.226562 L 452.1875 279.226562 L 451.171875 278.195312 C 450.6875 277.707031 450.691406 276.914062 451.183594 276.429688 Z M 451.183594 276.429688 " fill-opacity="1" fill-rule="evenodd"/><path fill="#759df5" d="M 446.4375 269.828125 L 467.664062 269.828125 L 467.664062 291.054688 L 446.4375 291.054688 L 446.4375 285.125 C 446.4375 284.433594 446.996094 283.875 447.683594 283.875 C 448.375 283.875 448.933594 284.433594 448.933594 285.125 L 448.933594 288.558594 L 465.167969 288.558594 L 465.167969 272.324219 L 448.933594 272.324219 L 448.933594 275.757812 C 448.933594 276.449219 448.375 277.007812 447.683594 277.007812 C 446.996094 277.007812 446.4375 276.449219 446.4375 275.757812 Z M 446.4375 269.828125 " fill-opacity="1" fill-rule="evenodd"/><path fill="#1455e2" d="M 471.414062 104.988281 C 471.414062 113.261719 464.703125 119.972656 456.425781 119.972656 C 448.152344 119.972656 441.441406 113.261719 441.441406 104.988281 C 441.441406 96.710938 448.152344 90 456.425781 90 C 464.703125 90 471.414062 96.710938 471.414062 104.988281 Z M 471.414062 104.988281 " fill-opacity="1" fill-rule="nonzero"/><path fill="#1455e2" d="M 456.425781 127.464844 C 439.804688 127.464844 425.886719 136.785156 422.339844 149.28125 C 430.582031 158.863281 442.796875 164.929688 456.425781 164.929688 C 470.058594 164.929688 482.273438 158.863281 490.515625 149.28125 C 486.964844 136.785156 473.050781 127.464844 456.425781 127.464844 Z M 456.425781 127.464844 " fill-opacity="1" fill-rule="nonzero"/><path fill="#253036" d="M 399.355469 209.882812 L 399.5 205.589844 L 396.113281 207.894531 L 395.234375 206.253906 L 398.808594 204.265625 L 395.234375 202.273438 L 396.113281 200.636719 L 399.5 202.9375 L 399.355469 198.644531 L 401.105469 198.644531 L 400.960938 202.9375 L 404.351562 200.636719 L 405.226562 202.273438 L 401.652344 204.265625 L 405.226562 206.253906 L 404.351562 207.894531 L 400.960938 205.589844 L 401.105469 209.882812 Z M 399.355469 209.882812 " fill-opacity="1" fill-rule="nonzero"/><path fill="#253036" d="M 399.355469 244.851562 L 399.5 240.558594 L 396.113281 242.859375 L 395.234375 241.222656 L 398.808594 239.230469 L 395.234375 237.242188 L 396.113281 235.601562 L 399.5 237.902344 L 399.355469 233.613281 L 401.105469 233.613281 L 400.960938 237.902344 L 404.351562 235.601562 L 405.226562 237.242188 L 401.652344 239.230469 L 405.226562 241.222656 L 404.351562 242.859375 L 400.960938 240.558594 L 401.105469 244.851562 Z M 399.355469 244.851562 " fill-opacity="1" fill-rule="nonzero"/><path fill="#253036" d="M 414.34375 209.882812 L 414.488281 205.589844 L 411.097656 207.894531 L 410.222656 206.253906 L 413.796875 204.265625 L 410.222656 202.273438 L 411.097656 200.636719 L 414.488281 202.9375 L 414.34375 198.644531 L 416.09375 198.644531 L 415.945312 202.9375 L 419.335938 200.636719 L 420.210938 202.273438 L 416.640625 204.265625 L 420.210938 206.253906 L 419.335938 207.894531 L 415.945312 205.589844 L 416.09375 209.882812 Z M 414.34375 209.882812 " fill-opacity="1" fill-rule="nonzero"/><path fill="#253036" d="M 414.34375 244.851562 L 414.488281 240.558594 L 411.097656 242.859375 L 410.222656 241.222656 L 413.796875 239.230469 L 410.222656 237.242188 L 411.097656 235.601562 L 414.488281 237.902344 L 414.34375 233.613281 L 416.09375 233.613281 L 415.945312 237.902344 L 419.335938 235.601562 L 420.210938 237.242188 L 416.640625 239.230469 L 420.210938 241.222656 L 419.335938 242.859375 L 415.945312 240.558594 L 416.09375 244.851562 Z M 414.34375 244.851562 " fill-opacity="1" fill-rule="nonzero"/><path fill="#253036" d="M 429.328125 209.882812 L 429.472656 205.589844 L 426.082031 207.894531 L 425.207031 206.253906 L 428.78125 204.265625 L 425.207031 202.273438 L 426.082031 200.636719 L 429.472656 202.9375 L 429.328125 198.644531 L 431.078125 198.644531 L 430.929688 202.9375 L 434.324219 200.636719 L 435.199219 202.273438 L 431.625 204.265625 L 435.199219 206.253906 L 434.324219 207.894531 L 430.929688 205.589844 L 431.078125 209.882812 Z M 429.328125 209.882812 " fill-opacity="1" fill-rule="nonzero"/><path fill="#253036" d="M 429.328125 244.851562 L 429.472656 240.558594 L 426.082031 242.859375 L 425.207031 241.222656 L 428.78125 239.230469 L 425.207031 237.242188 L 426.082031 235.601562 L 429.472656 237.902344 L 429.328125 233.613281 L 431.078125 233.613281 L 430.929688 237.902344 L 434.324219 235.601562 L 435.199219 237.242188 L 431.625 239.230469 L 435.199219 241.222656 L 434.324219 242.859375 L 430.929688 240.558594 L 431.078125 244.851562 Z M 429.328125 244.851562 " fill-opacity="1" fill-rule="nonzero"/><path fill="#253036" d="M 444.3125 209.882812 L 444.457031 205.589844 L 441.066406 207.894531 L 440.191406 206.253906 L 443.765625 204.265625 L 440.191406 202.273438 L 441.066406 200.636719 L 444.457031 202.9375 L 444.3125 198.644531 L 446.0625 198.644531 L 445.917969 202.9375 L 449.308594 200.636719 L 450.183594 202.273438 L 446.609375 204.265625 L 450.183594 206.253906 L 449.308594 207.894531 L 445.917969 205.589844 L 446.0625 209.882812 Z M 444.3125 209.882812 " fill-opacity="1" fill-rule="nonzero"/><path fill="#253036" d="M 459.300781 209.882812 L 459.445312 205.589844 L 456.054688 207.894531 L 455.179688 206.253906 L 458.75 204.265625 L 455.179688 202.273438 L 456.054688 200.636719 L 459.445312 202.9375 L 459.300781 198.644531 L 461.046875 198.644531 L 460.902344 202.9375 L 464.292969 200.636719 L 465.167969 202.273438 L 461.59375 204.265625 L 465.167969 206.253906 L 464.292969 207.894531 L 460.902344 205.589844 L 461.046875 209.882812 Z M 459.300781 209.882812 " fill-opacity="1" fill-rule="nonzero"/><path fill="#253036" d="M 444.3125 244.851562 L 444.457031 240.558594 L 441.066406 242.859375 L 440.191406 241.222656 L 443.765625 239.230469 L 440.191406 237.242188 L 441.066406 235.601562 L 444.457031 237.902344 L 444.3125 233.613281 L 446.0625 233.613281 L 445.917969 237.902344 L 449.308594 235.601562 L 450.183594 237.242188 L 446.609375 239.230469 L 450.183594 241.222656 L 449.308594 242.859375 L 445.917969 240.558594 L 446.0625 244.851562 Z M 444.3125 244.851562 " fill-opacity="1" fill-rule="nonzero"/><path fill="#f2f2f2" d="M 583.804688 79.386719 C 583.804688 73.523438 588.554688 68.773438 594.417969 68.773438 L 746.769531 68.773438 C 752.632812 68.773438 757.382812 73.523438 757.382812 79.386719 C 757.382812 85.25 752.632812 90 746.769531 90 L 594.417969 90 C 588.554688 90 583.804688 85.25 583.804688 79.386719 Z M 583.804688 79.386719 " fill-opacity="1" fill-rule="nonzero"/><path fill="#253036" d="M 596.054688 74.390625 C 593.800781 74.390625 591.921875 76.320312 591.921875 78.761719 C 591.921875 81.203125 593.800781 83.132812 596.054688 83.132812 C 597.277344 83.132812 598.382812 82.570312 599.144531 81.664062 C 599.789062 80.894531 600.1875 79.878906 600.1875 78.761719 C 600.1875 76.320312 598.308594 74.390625 596.054688 74.390625 Z M 590.671875 78.761719 C 590.671875 75.6875 593.054688 73.140625 596.054688 73.140625 C 599.054688 73.140625 601.433594 75.6875 601.433594 78.761719 C 601.433594 79.96875 601.070312 81.089844 600.445312 82.011719 L 604.226562 85.816406 L 603.339844 86.695312 L 599.628906 82.960938 C 598.683594 83.839844 597.429688 84.382812 596.054688 84.382812 C 593.054688 84.382812 590.671875 81.835938 590.671875 78.761719 Z M 590.671875 78.761719 " fill-opacity="1" fill-rule="evenodd"/><path fill="#1455e2" d="M 583.804688 123.71875 C 583.804688 121.648438 585.480469 119.972656 587.550781 119.972656 L 753.636719 119.972656 C 755.707031 119.972656 757.382812 121.648438 757.382812 123.71875 L 757.382812 174.917969 C 757.382812 176.988281 755.707031 178.664062 753.636719 178.664062 L 587.550781 178.664062 C 585.480469 178.664062 583.804688 176.988281 583.804688 174.917969 Z M 583.804688 123.71875 " fill-opacity="1" fill-rule="nonzero"/><path fill="#f2f2f2" d="M 583.804688 197.398438 C 583.804688 195.328125 585.480469 193.652344 587.550781 193.652344 L 653.734375 193.652344 C 655.804688 193.652344 657.480469 195.328125 657.480469 197.398438 L 657.480469 293.554688 C 657.480469 295.621094 655.804688 297.300781 653.734375 297.300781 L 587.550781 297.300781 C 585.480469 297.300781 583.804688 295.621094 583.804688 293.554688 Z M 583.804688 197.398438 " fill-opacity="1" fill-rule="nonzero"/><path fill="#f2f2f2" d="M 683.707031 197.398438 C 683.707031 195.328125 685.382812 193.652344 687.453125 193.652344 L 753.636719 193.652344 C 755.707031 193.652344 757.382812 195.328125 757.382812 197.398438 L 757.382812 293.554688 C 757.382812 295.621094 755.707031 297.300781 753.636719 297.300781 L 687.453125 297.300781 C 685.382812 297.300781 683.707031 295.621094 683.707031 293.554688 Z M 683.707031 197.398438 " fill-opacity="1" fill-rule="nonzero"/><path fill="#1455e2" d="M 583.804688 197.398438 C 583.804688 195.328125 585.480469 193.652344 587.550781 193.652344 L 653.734375 193.652344 C 655.804688 193.652344 657.480469 195.328125 657.480469 197.398438 L 657.480469 259.835938 L 583.804688 259.835938 Z M 583.804688 197.398438 " fill-opacity="1" fill-rule="nonzero"/><path fill="#1455e2" d="M 683.707031 197.398438 C 683.707031 195.328125 685.382812 193.652344 687.453125 193.652344 L 753.636719 193.652344 C 755.707031 193.652344 757.382812 195.328125 757.382812 197.398438 L 757.382812 259.835938 L 683.707031 259.835938 Z M 683.707031 197.398438 " fill-opacity="1" fill-rule="nonzero"/><path fill="#253036" d="M 614.398438 72.519531 L 615.648438 72.519531 L 615.648438 86.253906 L 614.398438 86.253906 Z M 614.398438 72.519531 " fill-opacity="1" fill-rule="evenodd"/><path fill="#fcbfbc" d="M 522.710938 530.375 C 519.398438 526.796875 498.886719 529.121094 491.304688 527.644531 L 489.964844 502.078125 C 490.589844 502.042969 514.609375 507.039062 517.894531 498.113281 C 526.765625 505.152344 524.035156 523.84375 522.710938 530.375 Z M 522.710938 530.375 " fill-opacity="1" fill-rule="nonzero"/><path fill="#759df5" d="M 507.25 504.613281 C 509.097656 509.199219 511.429688 507.480469 515.347656 511.515625 C 522.785156 519.175781 508.742188 523.691406 513.164062 528.894531 C 515.921875 532.144531 530.457031 531.632812 537.722656 530.46875 C 539.679688 518.121094 541.628906 494.402344 541.667969 478.261719 C 541.679688 473.414062 541.914062 467.683594 538.203125 464.578125 C 532.671875 459.953125 524.226562 474.046875 519.996094 483.4375 C 518.824219 485.027344 517.625 486.5625 516.5 487.976562 L 516.179688 488.378906 C 515.425781 489.328125 514.660156 490.246094 513.910156 491.140625 C 512.761719 492.507812 511.648438 493.816406 510.660156 495.078125 C 507.886719 498.601562 506.085938 501.726562 507.25 504.613281 Z M 507.25 504.613281 " fill-opacity="1" fill-rule="nonzero"/><path fill="#253036" d="M 508.054688 500.320312 C 507.445312 501.808594 507.324219 503.132812 507.828125 504.378906 C 508.265625 505.46875 508.71875 506.144531 509.1875 506.621094 C 509.652344 507.09375 510.167969 507.398438 510.800781 507.710938 C 510.964844 507.792969 511.140625 507.878906 511.324219 507.964844 C 512.523438 508.539062 514.015625 509.25 515.796875 511.082031 C 517.753906 513.097656 518.371094 515 518.140625 516.808594 C 517.917969 518.566406 516.902344 520.125 515.886719 521.496094 C 515.636719 521.835938 515.402344 522.144531 515.167969 522.445312 C 514.902344 522.792969 514.640625 523.132812 514.375 523.496094 C 513.910156 524.136719 513.515625 524.742188 513.253906 525.320312 C 512.992188 525.894531 512.875 526.417969 512.914062 526.914062 C 512.957031 527.402344 513.15625 527.925781 513.636719 528.492188 L 512.6875 529.300781 C 512.0625 528.566406 511.738281 527.804688 511.671875 527.019531 C 511.605469 526.246094 511.800781 525.503906 512.117188 524.804688 C 512.433594 524.105469 512.882812 523.425781 513.367188 522.761719 C 513.621094 522.410156 513.914062 522.03125 514.199219 521.65625 C 514.4375 521.347656 514.671875 521.042969 514.886719 520.753906 C 515.894531 519.390625 516.722656 518.058594 516.902344 516.652344 C 517.074219 515.300781 516.660156 513.761719 514.898438 511.953125 C 513.28125 510.285156 511.972656 509.660156 510.792969 509.09375 C 510.605469 509.003906 510.421875 508.917969 510.242188 508.828125 C 509.570312 508.492188 508.910156 508.117188 508.296875 507.496094 C 507.6875 506.875 507.152344 506.046875 506.667969 504.84375 C 506.007812 503.203125 506.207031 501.523438 506.898438 499.847656 C 507.585938 498.179688 508.773438 496.460938 510.167969 494.691406 C 511.007812 493.621094 511.9375 492.515625 512.890625 491.382812 C 513.070312 491.167969 513.25 490.957031 513.429688 490.742188 C 514.179688 489.84375 514.941406 488.929688 515.691406 487.988281 L 516.011719 487.585938 M 516.414062 489.085938 C 515.8125 489.835938 515.203125 490.566406 514.609375 491.277344 C 514.632812 491.367188 514.660156 491.460938 514.6875 491.554688 C 514.71875 491.675781 514.753906 491.8125 514.792969 491.953125 L 514.804688 492 C 514.847656 492.164062 514.894531 492.335938 514.945312 492.519531 C 515.140625 493.257812 515.402344 494.152344 515.734375 495.054688 C 516.070312 495.960938 516.472656 496.851562 516.957031 497.578125 C 517.445312 498.3125 517.976562 498.828125 518.546875 499.074219 L 518.058594 500.222656 C 517.167969 499.84375 516.46875 499.101562 515.914062 498.269531 C 515.359375 497.429688 514.917969 496.441406 514.5625 495.488281 C 514.210938 494.535156 513.941406 493.597656 513.738281 492.847656 C 513.699219 492.707031 513.664062 492.570312 513.628906 492.441406 C 512.835938 493.390625 512.070312 494.300781 511.367188 495.1875 C 511.382812 495.230469 511.398438 495.273438 511.414062 495.320312 C 511.671875 496.03125 512.132812 497.300781 512.769531 498.648438 C 513.179688 499.519531 513.648438 500.390625 514.160156 501.125 C 514.675781 501.867188 515.203125 502.417969 515.707031 502.703125 L 515.09375 503.792969 C 514.347656 503.371094 513.691406 502.640625 513.132812 501.839844 C 512.570312 501.027344 512.066406 500.085938 511.640625 499.179688 C 511.148438 498.136719 510.742188 497.097656 510.464844 496.351562 C 509.40625 497.765625 508.566406 499.082031 508.054688 500.320312 M 517.269531 488.015625 C 517.480469 488.394531 517.6875 488.863281 517.890625 489.347656 C 517.960938 489.507812 518.03125 489.671875 518.101562 489.839844 C 518.34375 490.425781 518.609375 491.054688 518.910156 491.6875 C 519.292969 492.496094 519.726562 493.277344 520.226562 493.921875 C 520.722656 494.570312 521.265625 495.050781 521.863281 495.304688 L 521.375 496.453125 C 520.511719 496.085938 519.808594 495.429688 519.234375 494.6875 C 518.660156 493.9375 518.183594 493.070312 517.78125 492.222656 C 517.46875 491.5625 517.1875 490.898438 516.941406 490.308594 C 516.871094 490.144531 516.808594 489.988281 516.742188 489.835938 C 516.621094 489.550781 516.511719 489.300781 516.414062 489.085938 M 517.269531 488.015625 C 518.054688 487.019531 518.878906 485.964844 519.699219 484.875 C 520.007812 486.03125 520.449219 487.402344 521.011719 488.683594 C 521.40625 489.59375 521.871094 490.472656 522.394531 491.199219 C 522.917969 491.917969 523.539062 492.539062 524.273438 492.851562 L 524.761719 491.703125 C 524.328125 491.515625 523.871094 491.101562 523.40625 490.464844 C 522.949219 489.835938 522.53125 489.046875 522.152344 488.183594 C 521.441406 486.550781 520.921875 484.742188 520.648438 483.507812 C 522.753906 478.867188 525.855469 473.152344 529.097656 469.144531 C 530.746094 467.109375 532.382812 465.566406 533.898438 464.8125 C 534.648438 464.433594 535.339844 464.265625 535.972656 464.296875 C 536.597656 464.328125 537.207031 464.558594 537.800781 465.054688 L 538.601562 464.097656 C 537.816406 463.4375 536.949219 463.097656 536.035156 463.050781 C 535.132812 463.003906 534.226562 463.25 533.339844 463.691406 C 531.582031 464.570312 529.808594 466.277344 528.125 468.359375 C 524.761719 472.519531 521.578125 478.414062 519.453125 483.121094 M 532.304688 498.667969 C 531.511719 509.554688 530.214844 520.40625 529.175781 527.597656 L 527.941406 527.417969 C 528.976562 520.25 530.269531 509.429688 531.058594 498.578125 C 531.851562 487.714844 532.136719 476.875 531.175781 469.640625 L 532.410156 469.476562 C 533.394531 476.847656 533.097656 487.800781 532.304688 498.667969 Z M 532.304688 498.667969 " fill-opacity="1" fill-rule="evenodd"/><path fill="#fcbfbc" d="M 521.542969 551.222656 C 519.121094 546.992188 498.609375 544.644531 491.558594 541.496094 L 496.003906 516.285156 C 496.617188 516.394531 518.898438 526.664062 524.105469 518.707031 C 531.167969 527.558594 524.304688 545.15625 521.542969 551.222656 Z M 521.542969 551.222656 " fill-opacity="1" fill-rule="nonzero"/><path fill="#759df5" d="M 512.273438 522.644531 C 513.039062 527.527344 515.699219 526.378906 518.613281 531.195312 C 524.132812 540.328125 509.433594 541.566406 512.574219 547.636719 C 514.53125 551.421875 528.804688 554.191406 536.148438 554.691406 C 540.832031 543.101562 548.066406 520.429688 551.738281 504.710938 C 552.839844 499.992188 554.359375 494.457031 551.441406 490.597656 C 547.089844 484.847656 535.691406 496.679688 529.457031 504.878906 C 527.957031 506.164062 526.445312 507.390625 525.03125 508.515625 L 524.625 508.835938 C 523.679688 509.589844 522.726562 510.3125 521.792969 511.015625 C 520.367188 512.089844 518.988281 513.117188 517.742188 514.121094 C 514.246094 516.929688 511.789062 519.570312 512.273438 522.644531 Z M 512.273438 522.644531 " fill-opacity="1" fill-rule="nonzero"/><path fill="#253036" d="M 514.023438 518.644531 C 513.09375 519.953125 512.679688 521.21875 512.890625 522.546875 C 513.070312 523.707031 513.359375 524.46875 513.710938 525.035156 C 514.058594 525.601562 514.492188 526.015625 515.035156 526.460938 C 515.179688 526.582031 515.332031 526.699219 515.488281 526.828125 C 516.53125 527.65625 517.824219 528.683594 519.144531 530.871094 C 520.601562 533.277344 520.777344 535.265625 520.140625 536.980469 C 519.527344 538.640625 518.191406 539.933594 516.890625 541.039062 C 516.570312 541.3125 516.273438 541.558594 515.980469 541.800781 C 515.640625 542.082031 515.308594 542.355469 514.96875 542.648438 C 514.371094 543.167969 513.851562 543.664062 513.464844 544.171875 C 513.082031 544.671875 512.847656 545.15625 512.777344 545.648438 C 512.707031 546.136719 512.785156 546.6875 513.128906 547.347656 L 512.019531 547.921875 C 511.574219 547.066406 511.429688 546.253906 511.539062 545.472656 C 511.652344 544.703125 512.007812 544.023438 512.472656 543.414062 C 512.9375 542.804688 513.53125 542.242188 514.152344 541.703125 C 514.480469 541.421875 514.847656 541.117188 515.210938 540.816406 C 515.511719 540.566406 515.808594 540.320312 516.082031 540.089844 C 517.375 538.988281 518.480469 537.878906 518.972656 536.546875 C 519.441406 535.269531 519.382812 533.679688 518.078125 531.515625 C 516.875 529.527344 515.742188 528.625 514.714844 527.808594 C 514.554688 527.679688 514.398438 527.554688 514.242188 527.425781 C 513.660156 526.949219 513.101562 526.429688 512.644531 525.6875 C 512.191406 524.949219 511.855469 524.019531 511.65625 522.738281 C 511.382812 520.992188 511.953125 519.402344 513.003906 517.921875 C 514.046875 516.453125 515.59375 515.042969 517.347656 513.632812 C 518.40625 512.78125 519.5625 511.914062 520.746094 511.019531 C 520.96875 510.855469 521.191406 510.6875 521.417969 510.519531 C 522.347656 509.816406 523.296875 509.09375 524.238281 508.347656 L 524.640625 508.027344 M 524.695312 509.578125 C 523.941406 510.171875 523.1875 510.746094 522.445312 511.308594 C 522.449219 511.398438 522.453125 511.496094 522.457031 511.59375 C 522.460938 511.71875 522.464844 511.859375 522.472656 512.007812 L 522.472656 512.054688 C 522.476562 512.222656 522.484375 512.402344 522.488281 512.59375 C 522.519531 513.355469 522.570312 514.285156 522.691406 515.242188 C 522.816406 516.199219 523.007812 517.15625 523.3125 517.972656 C 523.625 518.796875 524.027344 519.421875 524.527344 519.789062 L 523.792969 520.796875 C 523.011719 520.226562 522.496094 519.347656 522.144531 518.410156 C 521.792969 517.46875 521.582031 516.40625 521.453125 515.402344 C 521.324219 514.390625 521.269531 513.414062 521.242188 512.640625 C 521.238281 512.492188 521.234375 512.355469 521.230469 512.222656 C 520.242188 512.964844 519.292969 513.679688 518.40625 514.386719 C 518.410156 514.429688 518.417969 514.476562 518.421875 514.527344 C 518.515625 515.277344 518.679688 516.617188 518.996094 518.074219 C 519.199219 519.015625 519.460938 519.96875 519.792969 520.800781 C 520.128906 521.640625 520.515625 522.296875 520.945312 522.6875 L 520.101562 523.609375 C 519.46875 523.03125 518.996094 522.171875 518.632812 521.265625 C 518.265625 520.347656 517.984375 519.316406 517.773438 518.339844 C 517.527344 517.210938 517.367188 516.109375 517.265625 515.320312 C 515.917969 516.457031 514.800781 517.550781 514.023438 518.644531 M 525.769531 508.726562 C 525.890625 509.140625 525.988281 509.648438 526.078125 510.164062 C 526.109375 510.335938 526.140625 510.511719 526.167969 510.691406 C 526.277344 511.320312 526.390625 511.988281 526.542969 512.671875 C 526.734375 513.546875 526.980469 514.40625 527.320312 515.148438 C 527.664062 515.890625 528.082031 516.480469 528.605469 516.859375 L 527.871094 517.871094 C 527.113281 517.320312 526.578125 516.523438 526.1875 515.667969 C 525.792969 514.8125 525.523438 513.855469 525.324219 512.941406 C 525.164062 512.226562 525.042969 511.515625 524.933594 510.886719 C 524.90625 510.710938 524.875 510.542969 524.847656 510.382812 C 524.792969 510.078125 524.742188 509.808594 524.695312 509.578125 M 525.769531 508.726562 C 526.761719 507.933594 527.800781 507.089844 528.84375 506.214844 C 528.886719 507.410156 529.007812 508.847656 529.265625 510.21875 C 529.445312 511.195312 529.699219 512.15625 530.050781 512.980469 C 530.394531 513.796875 530.863281 514.542969 531.507812 515.011719 L 532.242188 514.003906 C 531.863281 513.726562 531.507812 513.21875 531.199219 512.496094 C 530.898438 511.777344 530.664062 510.914062 530.492188 509.988281 C 530.164062 508.238281 530.066406 506.359375 530.078125 505.09375 C 533.171875 501.046875 537.480469 496.175781 541.539062 493 C 543.601562 491.386719 545.546875 490.253906 547.195312 489.855469 C 548.007812 489.660156 548.722656 489.652344 549.332031 489.824219 C 549.929688 489.996094 550.472656 490.355469 550.941406 490.972656 L 551.9375 490.21875 C 551.316406 489.402344 550.554688 488.875 549.671875 488.621094 C 548.800781 488.375 547.863281 488.410156 546.898438 488.644531 C 544.992188 489.105469 542.878906 490.367188 540.769531 492.015625 C 536.554688 495.3125 532.128906 500.339844 529 504.449219 M 538.023438 522.488281 C 534.804688 532.917969 531.097656 543.199219 528.46875 549.972656 L 527.304688 549.519531 C 529.925781 542.769531 533.621094 532.515625 536.832031 522.121094 C 540.046875 511.714844 542.765625 501.214844 543.453125 493.953125 L 544.695312 494.070312 C 543.996094 501.472656 541.242188 512.078125 538.023438 522.488281 Z M 538.023438 522.488281 " fill-opacity="1" fill-rule="evenodd"/><path fill="#fcbfbc" d="M 366.339844 432.167969 C 365.089844 427.796875 364.34375 412.4375 363.84375 410.941406 C 358.015625 413.019531 348.980469 413.9375 346.984375 418.433594 C 346.984375 425.300781 346.585938 436.441406 350.105469 444.65625 C 351.980469 449.027344 379.660156 464.636719 388.820312 466.511719 L 403.804688 459.019531 C 398.808594 455.023438 377.371094 436.332031 366.339844 432.167969 Z M 366.339844 432.167969 " fill-opacity="1" fill-rule="nonzero"/><path fill="#253036" d="M 501.195312 502.101562 C 485.210938 500.101562 365.703125 498.980469 317 495.855469 C 313.003906 502.351562 310.339844 520.625 309.507812 528.949219 C 319.496094 528.949219 491.828125 539.566406 495.578125 537.066406 C 503.691406 528.949219 503.070312 513.339844 501.195312 502.101562 Z M 501.195312 502.101562 " fill-opacity="1" fill-rule="nonzero"/><path fill="#253036" d="M 281.410156 545.183594 C 248.941406 543.6875 259.472656 488.78125 268.628906 465.886719 C 279.453125 473.984375 304.46875 489.859375 317.957031 488.558594 C 347.964844 485.550781 378.925781 477.824219 390.679688 479 C 402.964844 480.226562 479.90625 501.15625 505.566406 518.960938 C 506.566406 526.949219 494.535156 543.308594 489.957031 546.433594 C 460.609375 539.566406 410.035156 530.199219 393.800781 518.960938 C 373.320312 526.953125 313.878906 546.683594 281.410156 545.183594 Z M 281.410156 545.183594 " fill-opacity="1" fill-rule="nonzero"/><path fill="#f2f2f2" d="M 467.519531 501.113281 C 467.636719 500.789062 467.996094 500.625 468.320312 500.742188 C 481.496094 505.648438 493.640625 510.910156 502.140625 516.015625 C 502.4375 516.191406 502.53125 516.578125 502.355469 516.871094 C 502.179688 517.167969 501.792969 517.265625 501.5 517.085938 C 493.101562 512.039062 481.042969 506.8125 467.886719 501.914062 C 467.5625 501.792969 467.398438 501.433594 467.519531 501.113281 Z M 467.519531 501.113281 " fill-opacity="1" fill-rule="evenodd"/><path fill="#f2f2f2" d="M 393.882812 518.257812 L 394.15625 518.445312 C 398.179688 521.234375 404.402344 523.929688 411.972656 526.511719 C 419.53125 529.09375 428.390625 531.546875 437.660156 533.867188 C 437.996094 533.949219 438.199219 534.289062 438.113281 534.625 C 438.03125 534.957031 437.691406 535.160156 437.355469 535.078125 C 428.070312 532.757812 419.175781 530.292969 411.566406 527.695312 C 404.140625 525.160156 397.894531 522.480469 393.71875 519.660156 C 386.535156 522.453125 374.789062 526.609375 361.160156 530.796875 C 360.832031 530.898438 360.480469 530.710938 360.382812 530.382812 C 360.28125 530.050781 360.464844 529.703125 360.792969 529.601562 C 374.59375 525.363281 386.449219 521.15625 393.574219 518.378906 Z M 393.882812 518.257812 " fill-opacity="1" fill-rule="evenodd"/><path fill="#1455e2" d="M 345.722656 359.738281 C 341.726562 376.722656 323.242188 365.148438 313.253906 357.242188 C 303.679688 360.15625 281.160156 367.605469 277.664062 374.101562 C 274.164062 380.59375 264.132812 403.863281 259.554688 414.6875 C 263.171875 416.835938 268.816406 419.773438 274.40625 421.875 C 272.726562 448.015625 255.964844 479.992188 258.929688 510.84375 C 289.527344 477.125 295.144531 503.351562 354.464844 495.855469 C 359.457031 488.363281 332.277344 445.75 350.71875 423.425781 C 350.890625 423.214844 351.0625 423 351.226562 422.785156 C 357.746094 420.796875 364.898438 416.933594 368.492188 414.6875 C 364.121094 374.101562 355.378906 365.359375 345.722656 359.738281 Z M 345.722656 359.738281 " fill-opacity="1" fill-rule="nonzero"/><path fill="#253036" d="M 345.183594 359.425781 C 345.355469 359.128906 345.738281 359.027344 346.035156 359.199219 C 350.945312 362.054688 355.644531 365.726562 359.648438 373.824219 C 363.636719 381.882812 366.925781 394.300781 369.113281 414.621094 L 369.15625 415.007812 L 368.824219 415.214844 C 365.238281 417.457031 358.140625 421.296875 351.601562 423.324219 C 351.46875 423.492188 351.335938 423.660156 351.199219 423.824219 C 346.707031 429.261719 344.972656 435.960938 344.851562 443.117188 C 344.730469 450.285156 346.226562 457.871094 348.152344 465.039062 C 349.316406 469.367188 350.617188 473.484375 351.816406 477.269531 C 352.609375 479.789062 353.363281 482.160156 353.992188 484.34375 C 354.773438 487.050781 355.363281 489.457031 355.601562 491.433594 C 355.832031 493.378906 355.742188 495.066406 354.984375 496.203125 C 354.792969 496.492188 354.40625 496.566406 354.117188 496.375 C 353.828125 496.1875 353.753906 495.796875 353.945312 495.511719 C 354.433594 494.773438 354.589844 493.492188 354.359375 491.582031 C 354.136719 489.710938 353.570312 487.382812 352.792969 484.691406 C 352.183594 482.578125 351.441406 480.226562 350.644531 477.714844 C 349.4375 473.890625 348.109375 469.691406 346.945312 465.367188 C 345.007812 458.152344 343.476562 450.433594 343.601562 443.097656 C 343.726562 435.753906 345.507812 428.753906 350.234375 423.03125 C 350.40625 422.824219 350.570312 422.617188 350.730469 422.40625 C 355.257812 416.484375 356.210938 408.644531 355.460938 400.128906 C 354.75 392.105469 352.539062 383.589844 350.484375 375.683594 C 350.359375 375.207031 350.234375 374.730469 350.113281 374.257812 C 350.027344 373.921875 350.226562 373.582031 350.5625 373.496094 C 350.894531 373.410156 351.234375 373.609375 351.320312 373.945312 C 351.445312 374.425781 351.570312 374.910156 351.699219 375.398438 C 353.746094 383.277344 355.984375 391.886719 356.703125 400.019531 C 357.402344 407.957031 356.667969 415.550781 352.808594 421.609375 C 358.550781 419.609375 364.507812 416.40625 367.828125 414.363281 C 365.648438 394.328125 362.394531 382.191406 358.53125 374.378906 C 354.65625 366.550781 350.160156 363.042969 345.40625 360.277344 C 345.109375 360.105469 345.007812 359.722656 345.183594 359.425781 Z M 345.183594 359.425781 " fill-opacity="1" fill-rule="evenodd"/><path fill="#fcbfbc" d="M 325.117188 483.371094 C 285.15625 471.503906 262.054688 453.523438 259.554688 444.03125 C 257.171875 434.972656 260.980469 422.996094 263.191406 416.730469 C 269.453125 420.078125 278.324219 424.003906 284.628906 424.453125 C 283.605469 429.433594 282.691406 436.902344 281.410156 439.039062 C 312.628906 456.519531 305.136719 460.265625 334.484375 474.003906 C 339.0625 474.628906 348.71875 476.875 350.71875 480.871094 C 348.429688 484.828125 344.222656 493.734375 335.730469 490.238281 C 332.734375 491.734375 326.574219 485.660156 325.117188 483.371094 Z M 325.117188 483.371094 " fill-opacity="1" fill-rule="nonzero"/><path fill="#759df5" d="M 442.960938 422.183594 L 356.550781 428.203125 C 354.785156 428.324219 353.332031 429.621094 353.046875 431.335938 L 343.46875 488.679688 L 300.234375 491.691406 C 300.164062 491.695312 300.121094 491.769531 300.152344 491.835938 C 301.847656 495.132812 305.039062 497.414062 308.722656 497.949219 L 311.382812 498.339844 C 311.496094 498.355469 311.609375 498.359375 311.722656 498.351562 L 423.398438 490.574219 C 428.128906 490.242188 432.316406 487.535156 434.566406 483.476562 C 434.988281 482.976562 435.285156 482.367188 435.394531 481.691406 L 444.972656 424.347656 C 445.175781 423.15625 444.1875 422.097656 442.960938 422.183594 Z M 442.960938 422.183594 " fill-opacity="1" fill-rule="nonzero"/><path fill="#fcbfbc" d="M 313.007812 357.246094 C 323.105469 354.316406 321.011719 338.511719 321.011719 329.144531 C 322.082031 332.691406 329.757812 350.128906 343.160156 351.535156 C 343.03125 353.699219 345.042969 357.777344 346.835938 360.824219 C 347.886719 362.613281 348.246094 364.851562 347.125 366.597656 C 339.484375 378.472656 321.554688 365.726562 313.007812 357.246094 Z M 313.007812 357.246094 " fill-opacity="1" fill-rule="nonzero"/><path fill="#fcbfbc" d="M 326.628906 316.578125 C 342.710938 316.222656 348.953125 305.167969 350.195312 299.261719 C 353.695312 300.585938 360.734375 305.097656 360.886719 312.542969 C 361.074219 321.851562 362.664062 349.617188 346.929688 351.503906 C 345.625 351.660156 344.371094 351.664062 343.160156 351.535156 C 329.753906 350.128906 322.082031 332.691406 321.007812 329.144531 C 313.363281 324.707031 313.355469 316.167969 316.605469 313.441406 C 319.210938 311.257812 324.375 314.621094 326.628906 316.578125 Z M 326.628906 316.578125 " fill-opacity="1" fill-rule="nonzero"/><path fill="#253036" d="M 318.484375 316.894531 C 318.636719 316.582031 319.011719 316.457031 319.320312 316.609375 C 320.105469 316.996094 321.253906 317.765625 322.207031 318.84375 C 323.160156 319.921875 323.960938 321.363281 323.925781 323.078125 C 323.917969 323.425781 323.632812 323.699219 323.289062 323.691406 C 322.945312 323.683594 322.667969 323.398438 322.675781 323.054688 C 322.703125 321.761719 322.097656 320.609375 321.269531 319.671875 C 320.441406 318.730469 319.429688 318.054688 318.769531 317.730469 C 318.460938 317.578125 318.332031 317.203125 318.484375 316.894531 Z M 320.832031 328.546875 C 321.160156 328.445312 321.507812 328.632812 321.609375 328.964844 C 322.125 330.671875 324.277344 335.851562 327.960938 340.769531 C 331.648438 345.695312 336.78125 350.238281 343.226562 350.914062 C 343.570312 350.953125 343.820312 351.257812 343.78125 351.601562 C 343.746094 351.945312 343.4375 352.191406 343.097656 352.15625 C 336.136719 351.425781 330.726562 346.546875 326.960938 341.519531 C 323.1875 336.476562 320.96875 331.164062 320.414062 329.324219 C 320.3125 328.996094 320.5 328.648438 320.832031 328.546875 Z M 320.832031 328.546875 " fill-opacity="1" fill-rule="evenodd"/><path fill="#253036" d="M 326.628906 316.578125 C 342.710938 316.222656 348.953125 305.167969 350.195312 299.261719 C 353.695312 300.585938 360.734375 305.097656 360.886719 312.542969 C 361.078125 321.851562 362.664062 349.617188 346.929688 351.503906 C 345.625 351.660156 344.371094 351.664062 343.160156 351.535156 C 343.035156 353.667969 344.417969 356.710938 345.097656 359.738281 C 352.40625 364.046875 357.597656 372.675781 360.082031 377.222656 C 361.214844 379.289062 362.722656 384.015625 364.21875 388.824219 L 371.792969 378.828125 C 376.332031 371.484375 373.023438 364.398438 368.71875 357.929688 C 364.277344 351.261719 369.363281 347.691406 372.21875 340.90625 C 375.070312 334.125 370.835938 327.980469 367.988281 323.210938 C 365.140625 318.4375 366.617188 313.042969 366.734375 300.246094 C 366.824219 290.007812 351.40625 284.085938 343.683594 282.40625 C 334.875 280.71875 315.828125 281.578125 310.125 298.558594 C 305.640625 312.480469 310.5625 314.203125 299.496094 316.714844 C 285.914062 319.796875 298.144531 332.164062 288.855469 337.882812 C 283.421875 341.59375 273.277344 357.050781 284.53125 368.480469 C 299.496094 364.109375 312.628906 359.113281 312.628906 359.113281 C 322.730469 356.179688 321.300781 337.289062 321.011719 329.144531 C 313.363281 324.707031 313.355469 316.167969 316.605469 313.441406 C 319.210938 311.257812 324.375 314.621094 326.628906 316.578125 Z M 326.628906 316.578125 " fill-opacity="1" fill-rule="nonzero"/><path fill="#253036" d="M 338.5 316.988281 C 337.308594 318.496094 336.441406 320.679688 336.222656 323.191406 C 336 325.703125 336.476562 328.007812 337.386719 329.695312 C 338.300781 331.394531 339.613281 332.40625 341.054688 332.53125 C 342.5 332.65625 343.964844 331.890625 345.160156 330.378906 C 346.351562 328.871094 347.21875 326.683594 347.4375 324.171875 C 347.65625 321.664062 347.183594 319.359375 346.269531 317.667969 C 345.355469 315.972656 344.046875 314.960938 342.601562 314.835938 C 341.160156 314.707031 339.695312 315.476562 338.5 316.988281 Z M 337.519531 316.214844 C 338.878906 314.496094 340.714844 313.414062 342.710938 313.589844 C 344.707031 313.765625 346.328125 315.144531 347.371094 317.074219 C 348.300781 318.796875 348.800781 321.011719 348.734375 323.398438 C 349.140625 323.3125 349.601562 323.25 350.066406 323.246094 C 350.535156 323.242188 351.058594 323.296875 351.539062 323.484375 C 351.839844 321.433594 352.585938 319.609375 353.617188 318.265625 C 354.769531 316.757812 356.34375 315.789062 358.078125 315.9375 C 359.808594 316.089844 361.191406 317.320312 362.066406 319.007812 C 362.945312 320.695312 363.367188 322.925781 363.160156 325.296875 C 362.953125 327.667969 362.152344 329.792969 360.992188 331.304688 C 359.835938 332.8125 358.261719 333.78125 356.527344 333.632812 C 354.828125 333.484375 353.464844 332.292969 352.589844 330.660156 C 351.746094 329.085938 351.304688 327.03125 351.410156 324.824219 C 351.117188 324.601562 350.660156 324.488281 350.078125 324.496094 C 349.566406 324.5 349.046875 324.59375 348.640625 324.703125 C 348.34375 327.25 347.429688 329.519531 346.140625 331.152344 C 344.777344 332.871094 342.941406 333.949219 340.945312 333.777344 C 338.949219 333.601562 337.328125 332.21875 336.289062 330.289062 C 335.246094 328.355469 334.738281 325.800781 334.976562 323.082031 C 335.214844 320.363281 336.15625 317.9375 337.519531 316.214844 Z M 354.605469 319.027344 C 353.613281 320.324219 352.882812 322.210938 352.691406 324.382812 C 352.683594 324.460938 352.679688 324.539062 352.671875 324.621094 C 352.527344 326.738281 352.9375 328.664062 353.6875 330.066406 C 354.445312 331.480469 355.5 332.289062 356.636719 332.386719 C 357.796875 332.488281 359 331.851562 360 330.546875 C 360.996094 329.246094 361.726562 327.359375 361.914062 325.1875 C 362.105469 323.015625 361.710938 321.03125 360.957031 319.582031 C 360.199219 318.125 359.128906 317.285156 357.96875 317.183594 C 356.808594 317.082031 355.605469 317.722656 354.605469 319.027344 Z M 354.605469 319.027344 " fill-opacity="1" fill-rule="evenodd"/><path fill="#253036" d="M 346.675781 326.597656 C 346.566406 327.835938 345.808594 328.78125 344.984375 328.710938 C 344.15625 328.636719 343.574219 327.574219 343.683594 326.335938 C 343.792969 325.097656 344.550781 324.152344 345.375 324.222656 C 346.203125 324.296875 346.78125 325.359375 346.675781 326.597656 Z M 346.675781 326.597656 " fill-opacity="1" fill-rule="nonzero"/><path fill="#253036" d="M 360.089844 328.273438 C 359.980469 329.511719 359.222656 330.457031 358.398438 330.386719 C 357.570312 330.3125 356.992188 329.25 357.097656 328.011719 C 357.207031 326.773438 357.964844 325.828125 358.789062 325.898438 C 359.617188 325.972656 360.199219 327.035156 360.089844 328.273438 Z M 360.089844 328.273438 " fill-opacity="1" fill-rule="nonzero"/><path fill="#253036" d="M 336.359375 319.304688 L 326.5 317.1875 L 326.761719 315.964844 L 336.621094 318.085938 Z M 336.359375 319.304688 " fill-opacity="1" fill-rule="evenodd"/><path fill="#253036" d="M 344.152344 341.582031 C 344.28125 341.261719 344.644531 341.109375 344.964844 341.238281 C 346.332031 341.789062 348.136719 342.066406 349.820312 341.253906 C 350.132812 341.105469 350.503906 341.234375 350.65625 341.546875 C 350.804688 341.855469 350.675781 342.230469 350.363281 342.378906 C 348.246094 343.398438 346.050781 343.019531 344.5 342.394531 C 344.179688 342.265625 344.023438 341.902344 344.152344 341.582031 Z M 344.152344 341.582031 " fill-opacity="1" fill-rule="evenodd"/><path fill="#253036" d="M 297.816406 399.726562 C 298.148438 399.820312 298.339844 400.167969 298.242188 400.5 C 297.304688 403.730469 295.804688 408.757812 294.351562 413.359375 C 292.90625 417.933594 291.484375 422.152344 290.710938 423.707031 L 290.636719 423.855469 L 290.496094 423.945312 C 288.8125 425.066406 286.453125 425.292969 283.859375 425.011719 C 281.242188 424.730469 278.273438 423.925781 275.285156 422.859375 C 269.296875 420.730469 263.109375 417.527344 259.234375 415.222656 C 258.941406 415.046875 258.84375 414.664062 259.019531 414.367188 C 259.195312 414.070312 259.578125 413.972656 259.875 414.148438 C 263.703125 416.425781 269.8125 419.589844 275.703125 421.683594 C 278.648438 422.730469 281.511719 423.503906 283.992188 423.769531 C 286.40625 424.03125 288.351562 423.800781 289.664062 422.996094 C 290.40625 421.433594 291.75 417.445312 293.160156 412.984375 C 294.609375 408.394531 296.109375 403.375 297.042969 400.152344 C 297.140625 399.820312 297.488281 399.628906 297.816406 399.726562 Z M 297.816406 399.726562 " fill-opacity="1" fill-rule="evenodd"/><path fill="#1455e2" d="M 724.082031 459.640625 C 728.910156 438.753906 735.660156 416.367188 739.714844 404.070312 C 742.183594 421.359375 737.113281 448.808594 731.722656 470.257812 C 743.335938 454.855469 768.0625 423.675781 774.054688 422.179688 C 764.21875 443.199219 741.082031 487.738281 727.226562 497.730469 L 702.875 492.734375 C 694.882812 489.738281 669.15625 443.199219 657.292969 420.304688 C 664.289062 422.804688 686.492188 451.316406 696.71875 465.261719 C 694.023438 444.660156 691.976562 417.527344 691.011719 400.949219 C 696.007812 406.445312 705.6875 440.285156 709.90625 456.519531 C 712.363281 434.273438 717.4375 400.507812 720.359375 382.21875 C 725.351562 393.207031 724.921875 438.414062 724.082031 459.640625 Z M 724.082031 459.640625 " fill-opacity="1" fill-rule="nonzero"/><path fill="#759df5" d="M 714.089844 463.386719 C 718.917969 442.5 725.667969 420.113281 729.722656 407.816406 C 732.195312 425.105469 727.125 452.554688 721.734375 474.003906 C 733.347656 458.601562 758.070312 427.421875 764.066406 425.925781 C 754.230469 446.945312 731.09375 491.488281 717.234375 501.476562 L 692.882812 496.480469 C 684.890625 493.484375 659.167969 446.945312 647.304688 424.050781 C 654.296875 426.550781 676.5 455.0625 686.726562 469.007812 C 684.035156 448.40625 681.988281 421.273438 681.019531 404.695312 C 686.015625 410.191406 695.699219 444.03125 699.914062 460.265625 C 702.371094 438.019531 707.449219 404.253906 710.367188 385.964844 C 715.363281 396.953125 714.929688 442.160156 714.089844 463.386719 Z M 714.089844 463.386719 " fill-opacity="1" fill-rule="nonzero"/><path fill="#253036" d="M 681.019531 491.488281 L 743.460938 491.488281 L 731.847656 550.660156 C 731.617188 551.832031 730.59375 552.675781 729.398438 552.675781 L 695.082031 552.675781 C 693.890625 552.675781 692.863281 551.832031 692.632812 550.660156 Z M 681.019531 491.488281 " fill-opacity="1" fill-rule="nonzero"/></svg>