<svg xmlns="http://www.w3.org/2000/svg" xmlns:xlink="http://www.w3.org/1999/xlink" width="1366" zoomAndPan="magnify" viewBox="0 0 1024.5 576" height="768" preserveAspectRatio="xMidYMid meet" version="1.0"><defs><filter x="0%" y="0%" width="100%" height="100%" id="84196d1b10"><feColorMatrix values="0 0 0 0 1 0 0 0 0 1 0 0 0 0 1 0 0 0 1 0" color-interpolation-filters="sRGB"/></filter><mask id="ddaa42317e"><g filter="url(#84196d1b10)"><rect x="-102.45" width="1229.4" fill="#000000" y="-57.6" height="691.2" fill-opacity="0.2"/></g></mask><clipPath id="2d7f6dd670"><rect x="0" width="49" y="0" height="116"/></clipPath><clipPath id="983dc00e2a"><path d="M 194 556 L 806 556 L 806 562.453125 L 194 562.453125 Z M 194 556 " clip-rule="nonzero"/></clipPath></defs><path fill="#dae4fe" d="M 601.277344 441.980469 C 577.675781 446.90625 553.28125 449.277344 528.488281 450.316406 C 465.554688 452.9375 399.410156 447.386719 339.097656 428.945312 C 258.804688 404.398438 225.332031 306.703125 277.339844 239.429688 C 292.496094 219.84375 312.566406 208.375 332.011719 193.867188 C 354.902344 176.792969 375.871094 157.125 392.003906 133.414062 C 406.089844 112.710938 415.375 89.015625 430.761719 69.195312 C 447.761719 47.296875 473.179688 33.644531 500.359375 29.304688 C 597.929688 13.730469 705.976562 70.03125 765.035156 146.089844 C 830.09375 229.882812 774.597656 343.945312 699.453125 399.53125 C 669.28125 421.847656 636.132812 434.710938 601.277344 441.980469 Z M 601.277344 441.980469 " fill-opacity="1" fill-rule="nonzero"/><path fill="#dae4fe" d="M 231.996094 312.34375 C 229.546875 312.34375 227.46875 310.46875 227.269531 307.992188 C 223.207031 258.539062 247.210938 218.246094 298.617188 188.257812 C 345.21875 161.078125 377.03125 109.347656 377.359375 108.820312 C 378.722656 106.589844 381.636719 105.859375 383.882812 107.222656 C 386.113281 108.585938 386.828125 111.5 385.480469 113.75 C 384.144531 115.949219 352.128906 168.035156 303.421875 196.457031 C 255.441406 224.445312 233 261.699219 236.753906 307.214844 C 236.96875 309.835938 235.015625 312.113281 232.414062 312.328125 C 232.257812 312.34375 232.132812 312.34375 231.996094 312.34375 Z M 231.996094 312.34375 " fill-opacity="1" fill-rule="nonzero"/><path fill="#2563eb" d="M 376.691406 537.457031 C 376.691406 537.457031 378.566406 551.40625 380.410156 553.511719 C 386.59375 560.625 400.527344 558.222656 407.4375 553.929688 C 411.808594 551.21875 407.75 541.84375 407.75 541.84375 Z M 376.691406 537.457031 " fill-opacity="1" fill-rule="nonzero"/><path fill="#192351" d="M 398.667969 523.136719 C 398.667969 523.136719 402.976562 532.652344 403.65625 533.660156 C 404.355469 534.667969 416.085938 549.066406 400.496094 552.242188 C 384.90625 555.417969 381.386719 553.1875 377.699219 542.648438 C 375.578125 536.558594 377.886719 524.734375 377.886719 524.734375 C 377.886719 524.734375 378.738281 528.253906 384.101562 528.332031 C 393.507812 528.453125 397.628906 526.546875 398.667969 523.136719 Z M 398.667969 523.136719 " fill-opacity="1" fill-rule="nonzero"/><path fill="#ffffff" d="M 396.914062 530.191406 L 385.015625 531.863281 C 384.566406 531.925781 384.160156 531.617188 384.101562 531.167969 C 384.039062 530.714844 384.347656 530.3125 384.796875 530.25 L 396.699219 528.578125 C 397.148438 528.515625 397.550781 528.824219 397.613281 529.277344 C 397.675781 529.726562 397.367188 530.128906 396.914062 530.191406 Z M 396.914062 530.191406 " fill-opacity="1" fill-rule="nonzero"/><path fill="#ffffff" d="M 397.660156 533.414062 L 385.757812 535.085938 C 385.308594 535.148438 384.90625 534.839844 384.84375 534.390625 C 384.78125 533.941406 385.089844 533.539062 385.542969 533.476562 L 397.441406 531.800781 C 397.890625 531.738281 398.296875 532.050781 398.355469 532.5 C 398.417969 532.933594 398.109375 533.351562 397.660156 533.414062 Z M 397.660156 533.414062 " fill-opacity="1" fill-rule="nonzero"/><path fill="#ffffff" d="M 398.480469 537.195312 L 386.578125 538.867188 C 386.128906 538.929688 385.726562 538.621094 385.664062 538.171875 C 385.601562 537.722656 385.914062 537.320312 386.363281 537.257812 L 398.265625 535.582031 C 398.714844 535.519531 399.117188 535.832031 399.179688 536.28125 C 399.242188 536.730469 398.929688 537.132812 398.480469 537.195312 Z M 398.480469 537.195312 " fill-opacity="1" fill-rule="nonzero"/><path fill="#192351" d="M 375.933594 375.464844 C 369.425781 348.019531 367.441406 320.0625 367.441406 320.0625 L 341.902344 300.101562 L 286.15625 320.464844 C 284.296875 345.339844 285.707031 456.796875 285.628906 472.121094 C 285.554688 487.449219 285.460938 523.742188 285.460938 523.742188 C 285.460938 523.742188 303.855469 527.835938 311.199219 521.636719 C 311.199219 521.636719 314.90625 494.886719 315.804688 482.382812 C 318.839844 439.734375 326.699219 367.808594 326.699219 367.808594 C 326.699219 367.808594 338.675781 401.933594 348.9375 428.929688 L 373.097656 520.316406 C 395.800781 522.519531 402.246094 516.675781 402.246094 516.675781 C 402.246094 516.675781 380.320312 393.9375 375.933594 375.464844 Z M 375.933594 375.464844 " fill-opacity="1" fill-rule="nonzero"/><path fill="#dae4fe" d="M 326.699219 368.183594 C 326.527344 368.183594 326.371094 368.058594 326.339844 367.886719 L 323.007812 350.839844 C 322.980469 350.640625 323.101562 350.453125 323.289062 350.421875 C 323.488281 350.390625 323.675781 350.515625 323.707031 350.699219 L 327.039062 367.746094 C 327.070312 367.949219 326.945312 368.136719 326.761719 368.167969 C 326.746094 368.183594 326.730469 368.183594 326.699219 368.183594 Z M 326.699219 368.183594 " fill-opacity="1" fill-rule="nonzero"/><path fill="#dae4fe" d="M 325.039062 359.660156 C 324.992188 359.660156 324.945312 359.644531 324.902344 359.628906 C 324.636719 359.519531 318.578125 357.007812 316.003906 354.886719 C 315.851562 354.761719 315.835938 354.527344 315.957031 354.375 C 316.082031 354.21875 316.316406 354.203125 316.46875 354.328125 C 318.964844 356.371094 325.117188 358.929688 325.179688 358.960938 C 325.367188 359.039062 325.441406 359.238281 325.378906 359.425781 C 325.320312 359.582031 325.179688 359.660156 325.039062 359.660156 Z M 325.039062 359.660156 " fill-opacity="1" fill-rule="nonzero"/><path fill="#2563eb" d="M 255.582031 549.25 C 255.582031 549.25 254.125 557.636719 263.996094 558.644531 C 273.867188 559.648438 280.796875 559.109375 285.894531 558.007812 C 290.992188 556.890625 293.859375 555.296875 299.222656 555.746094 C 304.582031 556.195312 310.070312 558.425781 312.765625 555.699219 C 314.980469 553.464844 312.953125 547.359375 312.953125 547.359375 L 283.398438 547.5 Z M 255.582031 549.25 " fill-opacity="1" fill-rule="nonzero"/><path fill="#192351" d="M 286.839844 531.226562 C 286.839844 531.226562 275.125 539.582031 269.359375 542.433594 C 263.59375 545.269531 256.109375 543.300781 255.597656 549.25 C 255.085938 555.203125 271.359375 553.902344 280.886719 553.015625 C 290.417969 552.132812 297.097656 548.414062 302.089844 549.902344 C 307.078125 551.375 312.625 549.003906 312.984375 547.359375 C 313.339844 545.71875 310.9375 531.242188 309.667969 529.863281 C 309.667969 529.863281 308.96875 532.714844 299.578125 532.964844 C 290.1875 533.195312 286.839844 531.226562 286.839844 531.226562 Z M 286.839844 531.226562 " fill-opacity="1" fill-rule="nonzero"/><path fill="#ffffff" d="M 275.914062 543.316406 L 275.773438 543.410156 C 275.496094 543.578125 275.15625 543.488281 274.984375 543.207031 L 273.203125 540.183594 C 273.046875 539.90625 273.125 539.550781 273.402344 539.394531 L 273.542969 539.300781 C 273.820312 539.132812 274.164062 539.226562 274.332031 539.503906 L 276.113281 542.527344 C 276.285156 542.789062 276.191406 543.144531 275.914062 543.316406 Z M 275.914062 543.316406 " fill-opacity="1" fill-rule="nonzero"/><path fill="#ffffff" d="M 278.578125 541.425781 L 278.441406 541.519531 C 278.160156 541.6875 277.820312 541.597656 277.648438 541.316406 L 275.867188 538.292969 C 275.710938 538.015625 275.789062 537.660156 276.070312 537.503906 L 276.207031 537.410156 C 276.488281 537.242188 276.828125 537.332031 277 537.613281 L 278.78125 540.636719 C 278.9375 540.914062 278.84375 541.269531 278.578125 541.425781 Z M 278.578125 541.425781 " fill-opacity="1" fill-rule="nonzero"/><path fill="#ffffff" d="M 281.679688 539.425781 L 281.539062 539.519531 C 281.261719 539.691406 280.917969 539.597656 280.75 539.316406 L 278.964844 536.296875 C 278.8125 536.015625 278.890625 535.660156 279.167969 535.503906 L 279.308594 535.414062 C 279.585938 535.242188 279.925781 535.335938 280.097656 535.613281 L 281.878906 538.636719 C 282.035156 538.914062 281.957031 539.269531 281.679688 539.425781 Z M 281.679688 539.425781 " fill-opacity="1" fill-rule="nonzero"/><path fill="#ffffff" d="M 284.746094 537.457031 L 284.609375 537.550781 C 284.328125 537.722656 283.988281 537.628906 283.816406 537.347656 L 282.035156 534.328125 C 281.878906 534.046875 281.957031 533.691406 282.238281 533.539062 L 282.375 533.445312 C 282.65625 533.273438 282.996094 533.367188 283.167969 533.644531 L 284.949219 536.667969 C 285.105469 536.929688 285.011719 537.289062 284.746094 537.457031 Z M 284.746094 537.457031 " fill-opacity="1" fill-rule="nonzero"/><path fill="#c47249" d="M 311.558594 260.382812 C 293.582031 263.203125 262.773438 270.734375 262.773438 270.734375 C 263.980469 252.339844 266.195312 237.773438 268.925781 226.257812 C 278.625 185.253906 297.609375 182.710938 297.609375 182.710938 L 311.664062 189.839844 L 327.953125 196.75 C 327.953125 196.75 329.535156 257.5625 311.558594 260.382812 Z M 311.558594 260.382812 " fill-opacity="1" fill-rule="nonzero"/><path fill="#c47249" d="M 291.378906 264.085938 C 291.378906 264.085938 299.316406 286.339844 283.785156 288.695312 C 278.113281 289.5625 251.132812 267.761719 251.132812 267.761719 L 268.972656 256.492188 Z M 291.378906 264.085938 " fill-opacity="1" fill-rule="nonzero"/><path fill="#2563eb" d="M 311.664062 189.839844 C 310.488281 205.214844 307.417969 224.863281 299.453125 226.566406 C 289.566406 228.675781 275.402344 227.15625 268.910156 226.257812 C 278.609375 185.253906 295.640625 182.386719 295.640625 182.386719 Z M 311.664062 189.839844 " fill-opacity="1" fill-rule="nonzero"/><path fill="#192351" d="M 288.527344 227.792969 C 288.527344 227.792969 288.511719 227.792969 288.527344 227.792969 C 288.40625 227.792969 288.328125 227.699219 288.328125 227.589844 C 288.328125 227.46875 289.085938 215.890625 290.652344 209.628906 C 290.683594 209.519531 290.792969 209.460938 290.882812 209.492188 C 290.992188 209.519531 291.054688 209.628906 291.023438 209.722656 C 289.457031 215.96875 288.714844 227.496094 288.714844 227.621094 C 288.714844 227.699219 288.636719 227.792969 288.527344 227.792969 Z M 288.527344 227.792969 " fill-opacity="1" fill-rule="nonzero"/><path fill="#c47249" d="M 302.941406 194.289062 C 303.003906 194.117188 318.296875 210.328125 328.277344 207.058594 C 339.4375 203.382812 344.425781 180.648438 344.425781 180.648438 L 342.660156 157.824219 L 342.644531 157.449219 L 342.613281 156.085938 L 340.414062 156.894531 L 331.65625 160.085938 L 328.140625 161.371094 L 319.152344 164.640625 C 319.152344 164.640625 318.996094 170.546875 317.878906 175.335938 C 317.757812 175.847656 317.648438 176.3125 317.523438 176.777344 C 317.277344 177.566406 316.902344 178.308594 316.484375 178.929688 C 315.523438 180.433594 314.332031 181.394531 314.332031 181.410156 C 312.070312 186.167969 303.019531 194.289062 302.941406 194.289062 Z M 302.941406 194.289062 " fill-opacity="1" fill-rule="nonzero"/><path fill="#c47249" d="M 306.335938 151.097656 C 309.15625 163.496094 314.144531 175.90625 326.15625 174.0625 C 334.554688 172.761719 342.644531 161.125 344.457031 150.445312 C 345.386719 144.929688 346.253906 140.125 346.238281 136.5 C 346.222656 133.632812 346.085938 131.832031 346.085938 131.832031 L 344.023438 125.605469 L 342.800781 121.960938 C 342.800781 121.960938 340.101562 119.777344 337.082031 117.3125 C 333.316406 114.230469 327.519531 118.691406 327.425781 118.476562 C 327.269531 118.148438 310.394531 115.792969 305.09375 122.550781 C 305.078125 122.566406 305.0625 122.582031 305.0625 122.597656 C 304.582031 123.21875 304.210938 123.835938 303.980469 124.472656 C 303.777344 125 303.683594 125.542969 303.683594 126.085938 C 303.683594 127.121094 303.730469 128.6875 303.792969 130.65625 C 303.839844 131.476562 303.871094 132.375 303.933594 133.335938 C 304.027344 134.949219 304.164062 136.714844 304.351562 138.574219 C 304.722656 142.464844 305.34375 146.804688 306.335938 151.097656 Z M 306.335938 151.097656 " fill-opacity="1" fill-rule="nonzero"/><path fill="#192351" d="M 307.792969 156.785156 C 310.378906 168.113281 315.199219 175.164062 326.28125 174.0625 C 336.878906 173.023438 342.457031 161.695312 344.117188 151.933594 C 343.21875 149.625 342.289062 143.90625 342.289062 143.90625 C 342.289062 143.90625 339.578125 139.691406 339.605469 139.847656 C 339.964844 141.597656 339.839844 153.5625 334.695312 155.046875 C 329.101562 156.675781 327.101562 158.117188 324.960938 158.085938 C 322.824219 158.054688 322.1875 157.3125 320.3125 157.777344 C 318.421875 158.242188 317.136719 159.234375 314.59375 158.800781 C 312.207031 158.410156 309.574219 160.101562 307.792969 156.785156 Z M 307.792969 156.785156 " fill-opacity="1" fill-rule="nonzero"/><path fill="#192351" d="M 346.796875 136.359375 C 346.796875 136.359375 348.8125 109.207031 332.988281 109.207031 C 332.988281 109.207031 320.667969 103.441406 307.046875 111.300781 C 298.089844 116.460938 301.328125 127.292969 302.226562 131.042969 C 302.785156 133.398438 303.746094 135.351562 304.054688 135.226562 C 304.925781 134.871094 305.015625 132.515625 308.195312 133.242188 C 321.074219 136.1875 329.148438 126.535156 332.757812 128.640625 C 336.367188 130.75 344.132812 151.933594 344.132812 151.933594 C 344.132812 151.933594 344.785156 141.921875 346.796875 136.359375 Z M 346.796875 136.359375 " fill-opacity="1" fill-rule="nonzero"/><path fill="#c47249" d="M 343.667969 138.714844 C 343.667969 138.714844 350.796875 133.601562 350.890625 141.007812 C 350.980469 148.414062 344.101562 151.949219 344.101562 151.949219 Z M 343.667969 138.714844 " fill-opacity="1" fill-rule="nonzero"/><path fill="#192351" d="M 345.574219 141.007812 C 345.574219 141.007812 351.246094 139.007812 345.804688 147.222656 Z M 345.574219 141.007812 " fill-opacity="1" fill-rule="nonzero"/><path fill="#192351" d="M 314.03125 147.457031 C 314.105469 147.714844 314.148438 147.96875 314.160156 148.222656 C 314.167969 148.476562 314.148438 148.707031 314.09375 148.921875 C 314.039062 149.132812 313.957031 149.308594 313.847656 149.445312 C 313.734375 149.582031 313.605469 149.675781 313.457031 149.71875 C 313.304688 149.761719 313.148438 149.753906 312.980469 149.695312 C 312.8125 149.636719 312.652344 149.53125 312.492188 149.378906 C 312.335938 149.230469 312.191406 149.042969 312.066406 148.824219 C 311.941406 148.601562 311.839844 148.363281 311.769531 148.105469 C 311.695312 147.847656 311.652344 147.59375 311.640625 147.339844 C 311.628906 147.085938 311.652344 146.855469 311.707031 146.640625 C 311.761719 146.429688 311.84375 146.253906 311.953125 146.117188 C 312.0625 145.976562 312.195312 145.886719 312.34375 145.84375 C 312.496094 145.800781 312.652344 145.808594 312.820312 145.867188 C 312.988281 145.925781 313.148438 146.03125 313.308594 146.183594 C 313.464844 146.332031 313.609375 146.519531 313.734375 146.738281 C 313.859375 146.960938 313.957031 147.199219 314.03125 147.457031 Z M 314.03125 147.457031 " fill-opacity="1" fill-rule="nonzero"/><path fill="#192351" d="M 327.714844 145.207031 C 327.789062 145.464844 327.832031 145.71875 327.84375 145.972656 C 327.851562 146.226562 327.832031 146.460938 327.777344 146.671875 C 327.722656 146.882812 327.640625 147.058594 327.53125 147.195312 C 327.417969 147.335938 327.289062 147.425781 327.140625 147.46875 C 326.988281 147.511719 326.832031 147.503906 326.664062 147.445312 C 326.496094 147.386719 326.335938 147.28125 326.175781 147.132812 C 326.015625 146.980469 325.875 146.792969 325.75 146.574219 C 325.625 146.351562 325.523438 146.113281 325.453125 145.855469 C 325.378906 145.601562 325.335938 145.34375 325.324219 145.089844 C 325.3125 144.835938 325.335938 144.605469 325.390625 144.394531 C 325.445312 144.179688 325.527344 144.003906 325.636719 143.867188 C 325.746094 143.730469 325.878906 143.640625 326.027344 143.597656 C 326.179688 143.554688 326.335938 143.558594 326.503906 143.617188 C 326.671875 143.675781 326.832031 143.78125 326.992188 143.933594 C 327.148438 144.085938 327.292969 144.269531 327.417969 144.492188 C 327.542969 144.710938 327.640625 144.949219 327.714844 145.207031 Z M 327.714844 145.207031 " fill-opacity="1" fill-rule="nonzero"/><path fill="#192351" d="M 314.59375 143.921875 C 314.59375 143.921875 311.046875 141.613281 308.242188 143.347656 Z M 314.59375 143.921875 " fill-opacity="1" fill-rule="nonzero"/><path fill="#192351" d="M 330.945312 139.953125 C 330.664062 139.9375 326.28125 139.457031 323.878906 142.417969 Z M 330.945312 139.953125 " fill-opacity="1" fill-rule="nonzero"/><path fill="#192351" d="M 319.738281 153.421875 C 318.871094 153.421875 318.484375 153.019531 318.3125 152.707031 C 317.800781 151.792969 318.359375 150.367188 319.167969 149.75 C 319.257812 149.671875 319.382812 149.703125 319.460938 149.792969 C 319.523438 149.886719 319.507812 150.011719 319.414062 150.089844 C 318.6875 150.648438 318.3125 151.855469 318.671875 152.507812 C 319.011719 153.125 319.957031 153.171875 321.320312 152.644531 C 321.429688 152.601562 321.554688 152.660156 321.585938 152.769531 C 321.628906 152.878906 321.570312 153.003906 321.460938 153.035156 C 320.746094 153.3125 320.1875 153.421875 319.738281 153.421875 Z M 319.738281 153.421875 " fill-opacity="1" fill-rule="nonzero"/><path fill="#ffffff" d="M 317.957031 164.113281 C 317.957031 164.113281 318.128906 164.410156 318.515625 164.765625 C 319.183594 165.417969 320.484375 166.300781 322.453125 166.066406 C 324.390625 165.835938 325.613281 164.578125 326.25 163.710938 C 326.589844 163.214844 326.761719 162.859375 326.761719 162.859375 Z M 317.957031 164.113281 " fill-opacity="1" fill-rule="nonzero"/><path fill="#2563eb" d="M 379.480469 191.375 C 367.96875 213.273438 366 285.488281 368.804688 323.6875 C 343.527344 329.65625 307.203125 332.617188 285.675781 326.664062 C 288.792969 285.859375 283.785156 218.523438 295.640625 182.386719 C 295.640625 182.386719 309.140625 178.496094 318.003906 178.140625 C 310.535156 188.257812 338.539062 191.003906 344.457031 178.140625 C 344.457031 178.140625 373.003906 184.074219 379.480469 191.375 Z M 379.480469 191.375 " fill-opacity="1" fill-rule="nonzero"/><path fill="#192351" d="M 288.527344 227.792969 C 288.527344 227.792969 288.511719 227.792969 288.527344 227.792969 C 288.40625 227.792969 288.328125 227.699219 288.328125 227.589844 C 288.328125 227.46875 289.085938 215.890625 290.652344 209.628906 C 290.683594 209.519531 290.792969 209.460938 290.882812 209.492188 C 290.992188 209.519531 291.054688 209.628906 291.023438 209.722656 C 289.457031 215.96875 288.714844 227.496094 288.714844 227.621094 C 288.714844 227.699219 288.636719 227.792969 288.527344 227.792969 Z M 288.527344 227.792969 " fill-opacity="1" fill-rule="nonzero"/><path fill="#c47249" d="M 416.148438 269.710938 C 419.679688 283.800781 407.40625 289.640625 380.90625 279.753906 C 368.386719 275.089844 359.351562 273.449219 356.40625 270.796875 L 358.035156 256.261719 C 360.234375 256.925781 374.058594 257.269531 386.488281 258.894531 L 375.746094 235.136719 C 378.675781 234.90625 389.941406 232.253906 399.738281 223.175781 C 408.742188 242.824219 413.109375 257.625 416.148438 269.710938 Z M 416.148438 269.710938 " fill-opacity="1" fill-rule="nonzero"/><path fill="#2563eb" d="M 377.949219 190.011719 C 377.949219 190.011719 386.097656 194.085938 393.289062 206.296875 C 399.796875 217.363281 406.355469 231.03125 405.003906 232.597656 C 396.714844 242.328125 377.574219 243.476562 377.574219 243.476562 L 368.882812 227.09375 Z M 377.949219 190.011719 " fill-opacity="1" fill-rule="nonzero"/><path fill="#192351" d="M 410.675781 266.488281 C 410.617188 266.488281 410.554688 266.457031 410.523438 266.410156 C 404.789062 258.492188 386.65625 259.066406 386.488281 259.082031 C 386.378906 259.082031 386.300781 259.003906 386.285156 258.894531 C 386.285156 258.785156 386.363281 258.695312 386.472656 258.695312 C 386.515625 258.695312 391.136719 258.539062 396.421875 259.359375 C 401.316406 260.136719 407.78125 261.949219 410.847656 266.179688 C 410.910156 266.273438 410.894531 266.394531 410.800781 266.457031 C 410.769531 266.472656 410.722656 266.488281 410.675781 266.488281 Z M 410.675781 266.488281 " fill-opacity="1" fill-rule="nonzero"/><path fill="#c47249" d="M 339.902344 271.585938 C 341.527344 270.519531 343.511719 270.101562 350.253906 271.078125 C 354.3125 271.664062 360.808594 270.175781 362.574219 269.789062 L 361.921875 257.285156 C 359.304688 256.601562 355.042969 253.796875 351.867188 252.292969 C 347.882812 250.417969 343.511719 247.210938 340.164062 248.355469 C 334.476562 250.277344 327.722656 253.640625 328.558594 255.765625 C 329.425781 257.886719 336.121094 255.796875 336.121094 255.796875 C 336.121094 255.796875 332.679688 257.6875 333.113281 259.980469 C 333.546875 262.273438 336.570312 263.03125 336.570312 263.03125 C 334.941406 265.417969 337.871094 267.636719 337.871094 267.636719 C 336.539062 269.789062 338.601562 272.425781 339.902344 271.585938 Z M 339.902344 271.585938 " fill-opacity="1" fill-rule="nonzero"/><path fill="#192351" d="M 337.886719 267.835938 C 337.824219 267.835938 337.777344 267.804688 337.730469 267.761719 C 337.671875 267.683594 337.671875 267.558594 337.761719 267.480469 C 337.871094 267.402344 340.304688 265.390625 344.132812 265.15625 C 344.132812 265.15625 344.132812 265.15625 344.148438 265.15625 C 344.257812 265.15625 344.332031 265.234375 344.347656 265.34375 C 344.347656 265.449219 344.273438 265.542969 344.164062 265.542969 C 340.476562 265.777344 338.042969 267.761719 338.027344 267.773438 C 337.980469 267.820312 337.933594 267.835938 337.886719 267.835938 Z M 337.886719 267.835938 " fill-opacity="1" fill-rule="nonzero"/><path fill="#192351" d="M 336.585938 263.234375 C 336.523438 263.234375 336.476562 263.21875 336.445312 263.171875 C 336.367188 263.09375 336.382812 262.972656 336.460938 262.894531 C 336.585938 262.785156 339.636719 260.121094 343.25 259.53125 C 343.359375 259.5 343.449219 259.578125 343.480469 259.6875 C 343.496094 259.792969 343.417969 259.886719 343.328125 259.917969 C 339.824219 260.492188 336.753906 263.171875 336.726562 263.1875 C 336.679688 263.21875 336.632812 263.234375 336.585938 263.234375 Z M 336.585938 263.234375 " fill-opacity="1" fill-rule="nonzero"/><path fill="#192351" d="M 336.136719 255.996094 C 336.074219 255.996094 335.996094 255.964844 335.964844 255.90625 C 335.917969 255.8125 335.949219 255.6875 336.042969 255.640625 C 336.074219 255.625 339.21875 253.875 342.984375 253.875 C 343.109375 253.875 343.25 253.9375 343.234375 254.074219 C 343.234375 254.183594 343.140625 254.277344 343.03125 254.277344 C 343.015625 254.277344 342.984375 254.277344 342.96875 254.277344 C 339.3125 254.277344 336.261719 255.964844 336.230469 255.980469 C 336.199219 255.980469 336.167969 255.996094 336.136719 255.996094 Z M 336.136719 255.996094 " fill-opacity="1" fill-rule="nonzero"/><path fill="#192351" d="M 352.066406 272.890625 L 297.515625 272.890625 L 297.515625 268.457031 L 348.175781 268.457031 C 350.316406 268.457031 352.050781 270.191406 352.050781 272.332031 L 352.050781 272.890625 Z M 352.066406 272.890625 " fill-opacity="1" fill-rule="nonzero"/><path fill="#192351" d="M 240.90625 272.890625 L 332.199219 272.890625 L 323.007812 213.9375 L 231.714844 213.9375 Z M 240.90625 272.890625 " fill-opacity="1" fill-rule="nonzero"/><path fill="#ffffff" d="M 286.867188 244.609375 C 286.949219 245.058594 286.988281 245.507812 286.988281 245.960938 C 286.988281 246.414062 286.949219 246.863281 286.867188 247.304688 C 286.785156 247.746094 286.660156 248.175781 286.5 248.589844 C 286.339844 249.003906 286.144531 249.394531 285.910156 249.765625 C 285.675781 250.136719 285.410156 250.476562 285.113281 250.785156 C 284.816406 251.097656 284.492188 251.375 284.140625 251.617188 C 283.792969 251.855469 283.421875 252.058594 283.035156 252.21875 C 282.644531 252.378906 282.246094 252.5 281.832031 252.574219 C 281.421875 252.648438 281.003906 252.679688 280.585938 252.667969 C 280.164062 252.652344 279.746094 252.597656 279.335938 252.496094 C 278.921875 252.394531 278.523438 252.25 278.132812 252.066406 C 277.746094 251.878906 277.375 251.65625 277.027344 251.390625 C 276.675781 251.128906 276.355469 250.832031 276.058594 250.5 C 275.761719 250.171875 275.496094 249.816406 275.261719 249.429688 C 275.027344 249.046875 274.832031 248.640625 274.667969 248.21875 C 274.507812 247.792969 274.386719 247.355469 274.304688 246.910156 C 274.222656 246.460938 274.183594 246.011719 274.183594 245.558594 C 274.183594 245.105469 274.222656 244.65625 274.304688 244.214844 C 274.386719 243.773438 274.511719 243.34375 274.671875 242.929688 C 274.832031 242.515625 275.027344 242.125 275.261719 241.753906 C 275.496094 241.386719 275.761719 241.042969 276.058594 240.734375 C 276.355469 240.421875 276.679688 240.144531 277.03125 239.90625 C 277.378906 239.664062 277.75 239.460938 278.136719 239.300781 C 278.527344 239.140625 278.925781 239.023438 279.339844 238.945312 C 279.75 238.871094 280.167969 238.839844 280.585938 238.851562 C 281.007812 238.867188 281.425781 238.921875 281.835938 239.023438 C 282.25 239.125 282.648438 239.269531 283.039062 239.457031 C 283.425781 239.640625 283.796875 239.867188 284.144531 240.128906 C 284.496094 240.390625 284.816406 240.6875 285.113281 241.019531 C 285.410156 241.347656 285.675781 241.707031 285.910156 242.089844 C 286.144531 242.472656 286.339844 242.878906 286.503906 243.304688 C 286.664062 243.726562 286.785156 244.164062 286.867188 244.609375 Z M 286.867188 244.609375 " fill-opacity="1" fill-rule="nonzero"/><path fill="#c47249" d="M 256.679688 272.84375 C 256.679688 272.84375 257.441406 272.488281 257.085938 269.0625 C 256.726562 265.652344 257.78125 262.304688 261.066406 262.675781 C 261.066406 262.675781 263.871094 259.28125 266.800781 262.644531 C 266.800781 262.644531 270.195312 261.113281 272.425781 263.933594 C 272.425781 263.933594 275.230469 262.367188 276.640625 264.445312 C 278.050781 266.519531 278.75 272.53125 276.65625 274.019531 C 274.550781 275.507812 269.171875 276.328125 264.246094 276.253906 C 259.316406 276.175781 256.679688 272.84375 256.679688 272.84375 Z M 256.679688 272.84375 " fill-opacity="1" fill-rule="nonzero"/><path fill="#192351" d="M 261.066406 272.144531 C 261.035156 272.144531 261.003906 272.128906 260.972656 272.113281 C 260.882812 272.050781 260.851562 271.945312 260.898438 271.851562 C 262.847656 268.503906 260.898438 262.785156 260.882812 262.738281 C 260.851562 262.628906 260.898438 262.523438 261.003906 262.492188 C 261.113281 262.460938 261.222656 262.507812 261.253906 262.613281 C 261.332031 262.863281 263.285156 268.566406 261.253906 272.050781 C 261.207031 272.113281 261.128906 272.144531 261.066406 272.144531 Z M 261.066406 272.144531 " fill-opacity="1" fill-rule="nonzero"/><path fill="#192351" d="M 266.800781 272.441406 C 266.769531 272.441406 266.753906 272.441406 266.722656 272.425781 C 266.628906 272.378906 266.585938 272.269531 266.617188 272.160156 C 268.320312 268.253906 266.617188 262.753906 266.601562 262.691406 C 266.570312 262.582031 266.628906 262.476562 266.722656 262.445312 C 266.832031 262.414062 266.941406 262.476562 266.972656 262.566406 C 267.050781 262.800781 268.738281 268.285156 266.972656 272.316406 C 266.957031 272.394531 266.878906 272.441406 266.800781 272.441406 Z M 266.800781 272.441406 " fill-opacity="1" fill-rule="nonzero"/><path fill="#192351" d="M 271.730469 272.953125 C 271.699219 272.953125 271.652344 272.9375 271.621094 272.921875 C 271.527344 272.859375 271.511719 272.734375 271.558594 272.65625 C 273.605469 269.542969 272.242188 264.023438 272.226562 263.976562 C 272.195312 263.871094 272.257812 263.761719 272.363281 263.746094 C 272.472656 263.714844 272.582031 263.777344 272.597656 263.886719 C 272.660156 264.117188 274.023438 269.621094 271.882812 272.875 C 271.851562 272.921875 271.792969 272.953125 271.730469 272.953125 Z M 271.730469 272.953125 " fill-opacity="1" fill-rule="nonzero"/><path fill="#192351" d="M 716.453125 394.667969 L 440.449219 394.667969 C 435.273438 394.667969 431.847656 390.171875 432.808594 384.625 L 479.855469 109.765625 C 480.710938 104.789062 485.421875 100.375 490.394531 99.863281 L 754.234375 73.394531 C 760.171875 72.804688 764.496094 76.695312 763.859375 82.117188 L 729.050781 383.585938 C 728.339844 389.707031 722.683594 394.667969 716.453125 394.667969 Z M 716.453125 394.667969 " fill-opacity="1" fill-rule="nonzero"/><path fill="#ffffff" d="M 709.152344 387.382812 L 433.148438 387.382812 C 427.972656 387.382812 424.546875 382.890625 425.507812 377.339844 L 472.558594 102.480469 C 473.410156 97.507812 478.121094 93.089844 483.097656 92.578125 L 746.9375 66.109375 C 752.871094 65.519531 757.195312 69.410156 756.558594 74.835938 L 721.753906 376.300781 C 721.054688 382.421875 715.398438 387.382812 709.152344 387.382812 Z M 709.152344 387.382812 " fill-opacity="1" fill-rule="nonzero"/><path fill="#dae4fe" d="M 706.582031 372.085938 L 439.175781 373.390625 L 479.949219 131.726562 L 737.699219 109.269531 Z M 706.582031 372.085938 " fill-opacity="1" fill-rule="nonzero"/><path fill="#2563eb" d="M 493.230469 110.371094 C 492.84375 112.695312 490.644531 114.738281 488.320312 114.957031 C 485.992188 115.175781 484.445312 113.46875 484.832031 111.160156 C 485.21875 108.851562 487.402344 106.804688 489.730469 106.574219 C 492.039062 106.355469 493.601562 108.046875 493.230469 110.371094 Z M 493.230469 110.371094 " fill-opacity="1" fill-rule="nonzero"/><path fill="#2563eb" d="M 522.644531 107.597656 C 522.273438 109.9375 520.042969 112.011719 517.671875 112.230469 C 515.300781 112.445312 513.703125 110.726562 514.074219 108.402344 C 514.445312 106.078125 516.679688 104 519.035156 103.769531 C 521.40625 103.550781 523.015625 105.257812 522.644531 107.597656 Z M 522.644531 107.597656 " fill-opacity="1" fill-rule="nonzero"/><path fill="#2563eb" d="M 507.859375 108.992188 C 507.472656 111.316406 505.273438 113.390625 502.917969 113.609375 C 500.578125 113.824219 498.996094 112.121094 499.382812 109.796875 C 499.769531 107.472656 501.972656 105.410156 504.3125 105.195312 C 506.652344 104.960938 508.246094 106.667969 507.859375 108.992188 Z M 507.859375 108.992188 " fill-opacity="1" fill-rule="nonzero"/><path fill="#2563eb" d="M 659.996094 324.246094 L 492.144531 327.640625 L 496.46875 300.613281 L 663.652344 295.703125 Z M 659.996094 324.246094 " fill-opacity="1" fill-rule="nonzero"/><path fill="#ffffff" d="M 557.527344 304.488281 L 556.367188 315.507812 L 560.566406 315.507812 L 560.257812 318.480469 L 552.304688 318.480469 L 553.777344 304.488281 Z M 557.527344 304.488281 " fill-opacity="1" fill-rule="nonzero"/><path fill="#ffffff" d="M 568.175781 318.621094 C 564.347656 318.621094 561.558594 315.644531 561.992188 311.429688 C 562.441406 307.214844 565.851562 304.269531 569.679688 304.269531 C 573.523438 304.269531 576.28125 307.230469 575.847656 311.429688 C 575.398438 315.644531 572.003906 318.621094 568.175781 318.621094 Z M 568.5625 315.011719 C 570.5 315.011719 571.816406 313.601562 572.035156 311.445312 C 572.265625 309.246094 571.246094 307.851562 569.308594 307.851562 C 567.355469 307.851562 566.050781 309.246094 565.820312 311.445312 C 565.601562 313.601562 566.59375 315.011719 568.5625 315.011719 Z M 568.5625 315.011719 " fill-opacity="1" fill-rule="nonzero"/><path fill="#ffffff" d="M 590.445312 309.089844 L 586.402344 309.089844 C 586.058594 308.363281 585.332031 307.945312 584.292969 307.945312 C 582.402344 307.945312 581.101562 309.308594 580.882812 311.460938 C 580.636719 313.863281 581.6875 315.148438 583.90625 315.148438 C 585.207031 315.148438 586.230469 314.515625 586.910156 313.304688 L 583.144531 313.304688 L 583.441406 310.5 L 590.445312 310.5 L 590.042969 314.265625 C 589.019531 316.3125 586.695312 318.574219 583.175781 318.574219 C 579.039062 318.574219 576.621094 315.628906 577.070312 311.445312 C 577.503906 307.277344 580.511719 304.332031 584.648438 304.332031 C 588.074219 304.347656 590.210938 306.175781 590.445312 309.089844 Z M 590.445312 309.089844 " fill-opacity="1" fill-rule="nonzero"/><path fill="#ffffff" d="M 592.769531 304.488281 L 596.519531 304.488281 L 595.046875 318.480469 L 591.296875 318.480469 Z M 592.769531 304.488281 " fill-opacity="1" fill-rule="nonzero"/><path fill="#ffffff" d="M 611.179688 304.488281 L 609.707031 318.480469 L 605.957031 318.480469 L 601.773438 310.65625 L 600.953125 318.480469 L 597.203125 318.480469 L 598.675781 304.488281 L 602.425781 304.488281 L 606.59375 312.40625 L 607.429688 304.488281 Z M 611.179688 304.488281 " fill-opacity="1" fill-rule="nonzero"/><path fill="#ffffff" d="M 628.117188 171.011719 C 625.746094 188.445312 609.226562 203.539062 591.40625 204.609375 C 573.785156 205.664062 561.730469 192.582031 564.253906 175.488281 C 566.765625 158.519531 582.789062 143.71875 600.238281 142.308594 C 617.890625 140.898438 630.460938 153.699219 628.117188 171.011719 Z M 628.117188 171.011719 " fill-opacity="1" fill-rule="nonzero"/><path fill="#192351" d="M 589.40625 205.242188 C 581.503906 205.242188 574.574219 202.40625 569.742188 197.125 C 564.597656 191.511719 562.441406 183.796875 563.679688 175.410156 C 566.222656 158.273438 582.589844 143.175781 600.175781 141.765625 C 609.074219 141.054688 616.898438 143.796875 622.308594 149.5 C 627.546875 155.03125 629.792969 162.6875 628.660156 171.089844 C 626.257812 188.800781 609.554688 204.082031 591.421875 205.183594 C 590.753906 205.214844 590.074219 205.242188 589.40625 205.242188 Z M 602.90625 142.773438 C 602.039062 142.773438 601.167969 142.804688 600.269531 142.882812 C 583.175781 144.261719 567.246094 158.921875 564.78125 175.582031 C 563.589844 183.625 565.648438 191.003906 570.5625 196.378906 C 575.566406 201.851562 582.976562 204.578125 591.359375 204.066406 C 608.980469 203.011719 625.222656 188.152344 627.546875 170.949219 C 628.628906 162.90625 626.492188 155.558594 621.484375 150.277344 C 616.882812 145.394531 610.34375 142.773438 602.90625 142.773438 Z M 602.90625 142.773438 " fill-opacity="1" fill-rule="nonzero"/><path fill="#192351" d="M 607.429688 164.703125 C 606.625 170.328125 601.277344 175.242188 595.496094 175.628906 C 589.746094 176.03125 585.765625 171.800781 586.585938 166.207031 C 587.40625 160.628906 592.707031 155.761719 598.441406 155.328125 C 604.191406 154.894531 608.234375 159.09375 607.429688 164.703125 Z M 607.429688 164.703125 " fill-opacity="1" fill-rule="nonzero"/><path fill="#192351" d="M 610.5 190.242188 L 576.140625 192.457031 L 577.414062 183.84375 C 577.832031 181.023438 580.480469 178.589844 583.347656 178.386719 L 607.152344 176.746094 C 610.066406 176.542969 612.109375 178.683594 611.707031 181.535156 Z M 610.5 190.242188 " fill-opacity="1" fill-rule="nonzero"/><path fill="#ffffff" d="M 665.40625 271.851562 L 501.289062 277.925781 L 504.855469 255.5625 L 668.441406 248.28125 Z M 665.40625 271.851562 " fill-opacity="1" fill-rule="nonzero"/><path fill="#192351" d="M 562.316406 263.824219 L 560.84375 266.085938 L 557.515625 266.085938 L 560.890625 261.421875 L 558.335938 257.097656 L 561.746094 257.097656 L 563.0625 259.359375 L 564.550781 257.097656 L 567.882812 257.097656 L 564.441406 261.683594 L 567.042969 266.101562 L 563.636719 266.101562 Z M 562.316406 263.824219 " fill-opacity="1" fill-rule="nonzero"/><path fill="#192351" d="M 572.035156 263.824219 L 570.5625 266.085938 L 567.230469 266.085938 L 570.609375 261.421875 L 568.050781 257.097656 L 571.460938 257.097656 L 572.777344 259.359375 L 574.265625 257.097656 L 577.597656 257.097656 L 574.15625 261.683594 L 576.761719 266.101562 L 573.351562 266.101562 Z M 572.035156 263.824219 " fill-opacity="1" fill-rule="nonzero"/><path fill="#192351" d="M 581.75 263.824219 L 580.277344 266.085938 L 576.945312 266.085938 L 580.324219 261.421875 L 577.769531 257.097656 L 581.179688 257.097656 L 582.496094 259.359375 L 583.984375 257.097656 L 587.316406 257.097656 L 583.875 261.683594 L 586.476562 266.101562 L 583.070312 266.101562 Z M 581.75 263.824219 " fill-opacity="1" fill-rule="nonzero"/><path fill="#192351" d="M 591.46875 263.824219 L 589.996094 266.085938 L 586.664062 266.085938 L 590.042969 261.421875 L 587.484375 257.097656 L 590.894531 257.097656 L 592.210938 259.359375 L 593.699219 257.097656 L 597.03125 257.097656 L 593.589844 261.683594 L 596.195312 266.101562 L 592.785156 266.101562 Z M 591.46875 263.824219 " fill-opacity="1" fill-rule="nonzero"/><path fill="#192351" d="M 601.183594 263.824219 L 599.710938 266.085938 L 596.378906 266.085938 L 599.757812 261.421875 L 597.203125 257.097656 L 600.613281 257.097656 L 601.929688 259.359375 L 603.417969 257.097656 L 606.75 257.097656 L 603.308594 261.683594 L 605.910156 266.101562 L 602.503906 266.101562 Z M 601.183594 263.824219 " fill-opacity="1" fill-rule="nonzero"/><path fill="#192351" d="M 610.902344 263.824219 L 609.429688 266.085938 L 606.097656 266.085938 L 609.476562 261.421875 L 606.917969 257.097656 L 610.328125 257.097656 L 611.644531 259.359375 L 613.132812 257.097656 L 616.464844 257.097656 L 613.023438 261.683594 L 615.628906 266.101562 L 612.21875 266.101562 Z M 610.902344 263.824219 " fill-opacity="1" fill-rule="nonzero"/><path fill="#ffffff" d="M 669.867188 237.089844 L 506.558594 244.949219 L 510.09375 222.878906 L 672.859375 213.84375 Z M 669.867188 237.089844 " fill-opacity="1" fill-rule="nonzero"/><path fill="#dae4fe" d="M 627.714844 229.296875 L 548.199219 233.371094 L 548.679688 230.257812 L 628.148438 226.101562 Z M 627.714844 229.296875 " fill-opacity="1" fill-rule="nonzero"/><path fill="#192351" d="M 750.886719 344.277344 C 752.066406 345.488281 753.183594 346.761719 754.230469 348.09375 C 755.28125 349.421875 756.257812 350.804688 757.167969 352.238281 C 758.074219 353.671875 758.90625 355.152344 759.664062 356.675781 C 760.421875 358.199219 761.097656 359.761719 761.699219 361.359375 C 762.296875 362.957031 762.816406 364.585938 763.253906 366.246094 C 763.6875 367.90625 764.039062 369.585938 764.308594 371.289062 C 764.578125 372.988281 764.761719 374.707031 764.859375 376.4375 C 764.960938 378.164062 764.972656 379.902344 764.898438 381.640625 C 764.828125 383.382812 764.667969 385.121094 764.425781 386.855469 C 764.183594 388.589844 763.855469 390.3125 763.445312 392.023438 C 763.035156 393.734375 762.542969 395.425781 761.96875 397.101562 C 761.390625 398.773438 760.738281 400.417969 760.003906 402.035156 C 759.269531 403.652344 758.460938 405.234375 757.578125 406.78125 C 756.691406 408.328125 755.734375 409.828125 754.707031 411.289062 C 753.679688 412.75 752.582031 414.160156 751.421875 415.523438 C 750.261719 416.882812 749.039062 418.1875 747.757812 419.433594 C 746.472656 420.683594 745.136719 421.867188 743.742188 422.992188 C 742.351562 424.113281 740.910156 425.167969 739.421875 426.15625 C 737.933594 427.140625 736.402344 428.054688 734.832031 428.898438 C 733.261719 429.738281 731.660156 430.503906 730.023438 431.191406 C 728.386719 431.878906 726.722656 432.488281 725.035156 433.015625 C 723.347656 433.546875 721.640625 433.992188 719.917969 434.355469 C 718.195312 434.714844 716.464844 434.996094 714.722656 435.191406 C 712.984375 435.382812 711.242188 435.492188 709.5 435.515625 C 707.757812 435.542969 706.023438 435.480469 704.296875 435.332031 C 702.570312 435.1875 700.859375 434.953125 699.167969 434.640625 C 697.472656 434.324219 695.800781 433.921875 694.15625 433.441406 C 692.511719 432.957031 690.894531 432.394531 689.316406 431.75 C 687.734375 431.109375 686.191406 430.386719 684.6875 429.585938 C 683.1875 428.785156 681.730469 427.914062 680.324219 426.964844 C 678.917969 426.019531 677.5625 425.003906 676.261719 423.917969 C 674.960938 422.832031 673.71875 421.683594 672.539062 420.46875 C 671.359375 419.253906 670.246094 417.980469 669.195312 416.652344 C 668.148438 415.320312 667.167969 413.941406 666.261719 412.503906 C 665.351562 411.070312 664.519531 409.59375 663.765625 408.070312 C 663.007812 406.546875 662.328125 404.984375 661.730469 403.386719 C 661.128906 401.785156 660.609375 400.15625 660.175781 398.5 C 659.738281 396.839844 659.386719 395.160156 659.117188 393.457031 C 658.847656 391.753906 658.664062 390.039062 658.566406 388.308594 C 658.46875 386.578125 658.453125 384.84375 658.527344 383.101562 C 658.601562 381.363281 658.757812 379.625 659 377.890625 C 659.242188 376.15625 659.570312 374.433594 659.980469 372.71875 C 660.390625 371.007812 660.886719 369.316406 661.460938 367.644531 C 662.035156 365.972656 662.6875 364.328125 663.421875 362.710938 C 664.15625 361.09375 664.964844 359.511719 665.851562 357.964844 C 666.734375 356.417969 667.691406 354.914062 668.71875 353.453125 C 669.75 351.992188 670.84375 350.582031 672.003906 349.222656 C 673.164062 347.859375 674.386719 346.558594 675.671875 345.308594 C 676.953125 344.0625 678.292969 342.875 679.683594 341.753906 C 681.074219 340.632812 682.515625 339.578125 684.003906 338.589844 C 685.492188 337.601562 687.023438 336.6875 688.59375 335.847656 C 690.164062 335.003906 691.769531 334.238281 693.40625 333.550781 C 695.042969 332.863281 696.703125 332.253906 698.390625 331.726562 C 700.082031 331.199219 701.785156 330.753906 703.507812 330.390625 C 705.230469 330.027344 706.960938 329.75 708.703125 329.554688 C 710.445312 329.359375 712.183594 329.25 713.925781 329.226562 C 715.667969 329.203125 717.402344 329.265625 719.128906 329.410156 C 720.855469 329.558594 722.566406 329.789062 724.261719 330.105469 C 725.953125 330.421875 727.625 330.820312 729.269531 331.304688 C 730.917969 331.785156 732.53125 332.347656 734.113281 332.992188 C 735.695312 333.636719 737.234375 334.359375 738.738281 335.15625 C 740.238281 335.957031 741.695312 336.832031 743.101562 337.777344 C 744.511719 338.722656 745.863281 339.742188 747.164062 340.828125 C 748.464844 341.914062 749.707031 343.0625 750.886719 344.277344 Z M 750.886719 344.277344 " fill-opacity="1" fill-rule="nonzero"/><path fill="#ffffff" d="M 743.804688 340.292969 C 744.984375 341.503906 746.097656 342.777344 747.148438 344.109375 C 748.195312 345.4375 749.175781 346.820312 750.082031 348.253906 C 750.988281 349.6875 751.820312 351.167969 752.578125 352.691406 C 753.335938 354.214844 754.015625 355.777344 754.613281 357.375 C 755.214844 358.972656 755.730469 360.601562 756.167969 362.261719 C 756.605469 363.917969 756.957031 365.601562 757.226562 367.304688 C 757.496094 369.003906 757.679688 370.722656 757.777344 372.453125 C 757.875 374.179688 757.886719 375.917969 757.816406 377.65625 C 757.742188 379.398438 757.585938 381.136719 757.34375 382.871094 C 757.101562 384.605469 756.773438 386.328125 756.363281 388.039062 C 755.949219 389.75 755.457031 391.441406 754.882812 393.117188 C 754.308594 394.789062 753.652344 396.433594 752.921875 398.050781 C 752.1875 399.667969 751.378906 401.25 750.492188 402.796875 C 749.605469 404.34375 748.652344 405.84375 747.621094 407.304688 C 746.59375 408.765625 745.5 410.175781 744.339844 411.539062 C 743.175781 412.898438 741.957031 414.203125 740.671875 415.449219 C 739.390625 416.699219 738.050781 417.882812 736.660156 419.007812 C 735.265625 420.128906 733.828125 421.183594 732.335938 422.171875 C 730.847656 423.15625 729.320312 424.070312 727.75 424.914062 C 726.179688 425.753906 724.574219 426.519531 722.9375 427.207031 C 721.300781 427.894531 719.636719 428.503906 717.949219 429.03125 C 716.261719 429.558594 714.558594 430.007812 712.835938 430.371094 C 711.113281 430.730469 709.378906 431.011719 707.640625 431.207031 C 705.898438 431.398438 704.15625 431.507812 702.414062 431.53125 C 700.675781 431.558594 698.941406 431.496094 697.214844 431.347656 C 695.488281 431.203125 693.777344 430.96875 692.082031 430.652344 C 690.386719 430.339844 688.71875 429.9375 687.070312 429.457031 C 685.425781 428.972656 683.8125 428.410156 682.230469 427.765625 C 680.648438 427.125 679.109375 426.402344 677.605469 425.601562 C 676.101562 424.800781 674.648438 423.929688 673.238281 422.980469 C 671.832031 422.035156 670.476562 421.019531 669.175781 419.933594 C 667.875 418.847656 666.636719 417.699219 665.457031 416.484375 C 664.273438 415.269531 663.160156 413.996094 662.113281 412.667969 C 661.0625 411.335938 660.085938 409.953125 659.175781 408.519531 C 658.269531 407.085938 657.4375 405.609375 656.679688 404.085938 C 655.921875 402.5625 655.242188 401 654.644531 399.402344 C 654.042969 397.800781 653.527344 396.171875 653.089844 394.515625 C 652.65625 392.855469 652.300781 391.175781 652.03125 389.472656 C 651.765625 387.769531 651.582031 386.054688 651.480469 384.324219 C 651.382812 382.59375 651.371094 380.859375 651.441406 379.117188 C 651.515625 377.378906 651.671875 375.640625 651.917969 373.90625 C 652.160156 372.171875 652.484375 370.449219 652.898438 368.734375 C 653.308594 367.023438 653.800781 365.332031 654.375 363.660156 C 654.949219 361.988281 655.605469 360.34375 656.339844 358.726562 C 657.070312 357.109375 657.882812 355.527344 658.765625 353.980469 C 659.652344 352.433594 660.609375 350.929688 661.636719 349.46875 C 662.664062 348.007812 663.757812 346.597656 664.921875 345.238281 C 666.082031 343.875 667.304688 342.574219 668.585938 341.324219 C 669.871094 340.078125 671.207031 338.890625 672.597656 337.769531 C 673.992188 336.648438 675.433594 335.589844 676.921875 334.605469 C 678.410156 333.617188 679.9375 332.703125 681.507812 331.863281 C 683.078125 331.019531 684.683594 330.253906 686.320312 329.566406 C 687.957031 328.878906 689.621094 328.269531 691.308594 327.742188 C 692.996094 327.214844 694.703125 326.769531 696.425781 326.40625 C 698.148438 326.042969 699.878906 325.765625 701.617188 325.570312 C 703.359375 325.375 705.101562 325.265625 706.84375 325.242188 C 708.585938 325.21875 710.320312 325.28125 712.046875 325.425781 C 713.773438 325.574219 715.480469 325.804688 717.175781 326.121094 C 718.871094 326.4375 720.539062 326.835938 722.1875 327.320312 C 723.832031 327.800781 725.445312 328.363281 727.027344 329.007812 C 728.609375 329.652344 730.152344 330.375 731.652344 331.171875 C 733.15625 331.972656 734.609375 332.847656 736.019531 333.792969 C 737.425781 334.738281 738.78125 335.757812 740.082031 336.84375 C 741.382812 337.929688 742.621094 339.078125 743.804688 340.292969 Z M 743.804688 340.292969 " fill-opacity="1" fill-rule="nonzero"/><path fill="#192351" d="M 701.652344 432.417969 C 687.226562 432.417969 673.960938 426.808594 664.320312 416.59375 C 654.648438 406.367188 649.769531 392.777344 650.574219 378.316406 C 652.234375 348.546875 677.804688 324.324219 707.574219 324.324219 C 722 324.324219 735.265625 329.933594 744.90625 340.148438 C 754.578125 350.375 759.457031 363.964844 758.652344 378.425781 C 756.992188 408.195312 731.421875 432.417969 701.652344 432.417969 Z M 707.574219 326.105469 C 678.734375 326.105469 653.953125 349.570312 652.355469 378.425781 C 651.582031 392.386719 656.292969 405.515625 665.621094 415.371094 C 674.9375 425.210938 687.738281 430.636719 701.667969 430.636719 C 730.507812 430.636719 755.289062 407.171875 756.886719 378.332031 C 757.660156 364.371094 752.949219 351.242188 743.621094 341.386719 C 734.304688 331.53125 721.503906 326.105469 707.574219 326.105469 Z M 707.574219 326.105469 " fill-opacity="1" fill-rule="nonzero"/><path fill="#2563eb" d="M 678.546875 368.320312 L 677.925781 367.035156 L 706.054688 352.453125 L 706.378906 352.636719 L 732.554688 367.035156 L 731.796875 368.320312 L 705.960938 354.125 Z M 678.546875 368.320312 " fill-opacity="1" fill-rule="nonzero"/><path fill="#2563eb" d="M 725.070312 367.671875 L 723.039062 404.242188 L 729.363281 404.242188 L 731.390625 367.671875 Z M 730.386719 371.109375 L 728.726562 400.851562 L 727.859375 400.851562 L 729.515625 371.109375 Z M 728.480469 371.109375 L 726.820312 400.851562 L 725.953125 400.851562 L 727.609375 371.109375 Z M 726.574219 371.109375 L 724.914062 400.851562 L 724.046875 400.851562 L 725.703125 371.109375 Z M 726.574219 371.109375 " fill-opacity="1" fill-rule="nonzero"/><path fill="#2563eb" d="M 732.074219 369.484375 L 724.203125 369.484375 L 724.308594 367.671875 L 732.167969 367.671875 Z M 732.074219 369.484375 " fill-opacity="1" fill-rule="nonzero"/><path fill="#2563eb" d="M 730.136719 404.289062 L 722.265625 404.289062 L 722.375 402.492188 L 730.230469 402.492188 Z M 730.136719 404.289062 " fill-opacity="1" fill-rule="nonzero"/><path fill="#2563eb" d="M 714.824219 367.671875 L 712.796875 404.242188 L 719.117188 404.242188 L 721.148438 367.671875 Z M 720.15625 371.109375 L 718.5 400.851562 L 717.632812 400.851562 L 719.289062 371.109375 Z M 718.234375 371.109375 L 716.578125 400.851562 L 715.710938 400.851562 L 717.367188 371.109375 Z M 716.328125 371.109375 L 714.671875 400.851562 L 713.804688 400.851562 L 715.460938 371.109375 Z M 716.328125 371.109375 " fill-opacity="1" fill-rule="nonzero"/><path fill="#2563eb" d="M 721.832031 369.484375 L 713.957031 369.484375 L 714.066406 367.671875 L 721.921875 367.671875 Z M 721.832031 369.484375 " fill-opacity="1" fill-rule="nonzero"/><path fill="#2563eb" d="M 719.894531 404.289062 L 712.019531 404.289062 L 712.128906 402.492188 L 719.988281 402.492188 Z M 719.894531 404.289062 " fill-opacity="1" fill-rule="nonzero"/><path fill="#2563eb" d="M 690.679688 367.671875 L 688.652344 404.242188 L 694.972656 404.242188 L 697.003906 367.671875 Z M 695.996094 371.109375 L 694.339844 400.851562 L 693.472656 400.851562 L 695.128906 371.109375 Z M 694.089844 371.109375 L 692.433594 400.851562 L 691.566406 400.851562 L 693.222656 371.109375 Z M 692.183594 371.109375 L 690.527344 400.851562 L 689.660156 400.851562 L 691.316406 371.109375 Z M 692.183594 371.109375 " fill-opacity="1" fill-rule="nonzero"/><path fill="#2563eb" d="M 697.671875 369.484375 L 689.8125 369.484375 L 689.90625 367.671875 L 697.777344 367.671875 Z M 697.671875 369.484375 " fill-opacity="1" fill-rule="nonzero"/><path fill="#2563eb" d="M 695.734375 404.289062 L 687.875 404.289062 L 687.96875 402.492188 L 695.84375 402.492188 Z M 695.734375 404.289062 " fill-opacity="1" fill-rule="nonzero"/><path fill="#2563eb" d="M 680.4375 367.671875 L 678.40625 404.242188 L 684.730469 404.242188 L 686.761719 367.671875 Z M 683.847656 371.109375 L 682.1875 400.851562 L 681.320312 400.851562 L 682.980469 371.109375 Z M 681.941406 371.109375 L 680.28125 400.851562 L 679.414062 400.851562 L 681.074219 371.109375 Z M 681.941406 371.109375 " fill-opacity="1" fill-rule="nonzero"/><path fill="#2563eb" d="M 687.425781 369.484375 L 679.570312 369.484375 L 679.664062 367.671875 L 687.535156 367.671875 Z M 687.425781 369.484375 " fill-opacity="1" fill-rule="nonzero"/><path fill="#2563eb" d="M 685.488281 404.289062 L 677.632812 404.289062 L 677.726562 402.492188 L 685.597656 402.492188 Z M 685.488281 404.289062 " fill-opacity="1" fill-rule="nonzero"/><path fill="#2563eb" d="M 709.167969 386.683594 L 708.207031 403.996094 C 708.207031 404.136719 708.085938 404.242188 707.945312 404.242188 L 707.03125 404.242188 C 707.140625 404.242188 707.230469 404.152344 707.230469 404.042969 L 708.191406 386.792969 C 708.300781 384.75 706.738281 383.089844 704.691406 383.089844 C 702.644531 383.089844 700.894531 384.75 700.769531 386.792969 L 699.808594 404.042969 C 699.808594 404.152344 699.886719 404.242188 699.996094 404.242188 L 699.082031 404.242188 C 698.941406 404.242188 698.847656 404.136719 698.847656 403.996094 L 699.808594 386.683594 C 699.949219 384.113281 702.164062 382.019531 704.738281 382.019531 C 707.308594 382.019531 709.308594 384.113281 709.167969 386.683594 Z M 709.167969 386.683594 " fill-opacity="1" fill-rule="nonzero"/><path fill="#2563eb" d="M 705.402344 370.335938 C 702.832031 370.335938 700.613281 372.429688 700.476562 375 L 700.320312 377.820312 C 700.320312 377.960938 700.414062 378.070312 700.554688 378.070312 L 709.402344 378.070312 C 709.542969 378.070312 709.648438 377.960938 709.664062 377.820312 L 709.820312 375 C 709.960938 372.429688 707.976562 370.335938 705.402344 370.335938 Z M 705.402344 370.335938 " fill-opacity="1" fill-rule="nonzero"/><path fill="#2563eb" d="M 714.113281 380.59375 L 696.292969 380.59375 L 696.324219 379.882812 L 714.160156 379.882812 Z M 714.113281 380.59375 " fill-opacity="1" fill-rule="nonzero"/><path fill="#2563eb" d="M 732.460938 368.507812 L 677.851562 368.507812 C 677.414062 368.507812 677.089844 368.167969 677.121094 367.730469 L 677.121094 367.6875 C 677.152344 367.25 677.507812 366.910156 677.941406 366.910156 L 732.554688 366.910156 C 732.988281 366.910156 733.3125 367.25 733.285156 367.6875 L 733.285156 367.730469 C 733.253906 368.167969 732.894531 368.507812 732.460938 368.507812 Z M 732.460938 368.507812 " fill-opacity="1" fill-rule="nonzero"/><path fill="#2563eb" d="M 705.328125 363.980469 C 704.394531 363.890625 703.730469 363.363281 703.761719 362.449219 L 705.015625 362.464844 C 705.03125 362.757812 705.15625 362.945312 705.386719 363.019531 L 705.464844 361.890625 C 704.738281 361.6875 703.824219 361.457031 703.902344 360.324219 C 703.960938 359.425781 704.722656 358.898438 705.667969 358.851562 L 705.699219 358.261719 L 706.148438 358.261719 L 706.117188 358.851562 C 707.0625 358.945312 707.636719 359.457031 707.636719 360.355469 L 706.363281 360.339844 C 706.347656 360.078125 706.242188 359.90625 706.039062 359.828125 L 705.960938 360.945312 C 706.691406 361.160156 707.621094 361.378906 707.558594 362.496094 C 707.511719 363.269531 706.859375 363.949219 705.761719 363.980469 L 705.730469 364.570312 L 705.28125 364.570312 Z M 705.527344 360.789062 L 705.589844 359.796875 C 705.328125 359.84375 705.15625 360 705.140625 360.277344 C 705.140625 360.527344 705.296875 360.679688 705.527344 360.789062 Z M 705.898438 362.03125 L 705.835938 363.050781 C 706.117188 363.003906 706.300781 362.820312 706.316406 362.539062 C 706.332031 362.277344 706.164062 362.136719 705.898438 362.03125 Z M 705.898438 362.03125 " fill-opacity="1" fill-rule="nonzero"/><path fill="#192351" d="M 472.261719 54.457031 C 472.261719 54.457031 454.707031 68.761719 421.402344 67.859375 L 421.402344 123.835938 C 421.402344 123.835938 444.136719 176.511719 472.292969 176.511719 C 500.453125 176.511719 523.125 123.835938 523.125 123.835938 L 523.125 67.859375 C 489.820312 68.761719 472.261719 54.457031 472.261719 54.457031 Z M 472.261719 54.457031 " fill-opacity="1" fill-rule="nonzero"/><path fill="#2563eb" d="M 518.429688 72.632812 L 518.429688 122.753906 C 516.832031 126.222656 511.609375 137.117188 504.125 147.828125 C 496.363281 158.921875 484.539062 172.140625 472.277344 172.140625 L 472.246094 172.140625 C 460.003906 172.125 448.164062 158.90625 440.402344 147.8125 C 432.902344 137.117188 427.664062 126.222656 426.082031 122.738281 L 426.082031 72.617188 C 449.792969 71.984375 465.414062 64.3125 472.246094 60.113281 C 479.097656 64.328125 494.71875 72 518.429688 72.632812 Z M 518.429688 72.632812 " fill-opacity="1" fill-rule="nonzero"/><g mask="url(#ddaa42317e)"><g transform="matrix(1, 0, 0, 1, 471, 58)"><g clip-path="url(#2d7f6dd670)"><path fill="#192351" d="M 47.429688 14.632812 L 47.429688 64.753906 C 45.832031 68.222656 40.609375 79.117188 33.125 89.828125 C 25.363281 100.921875 13.539062 114.140625 1.277344 114.140625 L 1.246094 114.140625 L 1.246094 2.113281 C 8.097656 6.328125 23.71875 14 47.429688 14.632812 Z M 47.429688 14.632812 " fill-opacity="1" fill-rule="nonzero"/></g></g></g><path fill="#ffffff" d="M 456.90625 128.113281 L 448.660156 109.84375 C 447.824219 108 448.644531 105.828125 450.488281 105.007812 C 452.335938 104.1875 454.503906 104.992188 455.324219 106.835938 L 460.316406 117.917969 L 495.914062 98.515625 C 497.679688 97.539062 499.910156 98.203125 500.871094 99.972656 C 501.832031 101.753906 501.179688 103.96875 499.414062 104.929688 Z M 456.90625 128.113281 " fill-opacity="1" fill-rule="nonzero"/><g clip-path="url(#983dc00e2a)"><path fill="#192351" d="M 194.058594 556.101562 L 805.144531 556.101562 L 805.144531 562.175781 L 194.058594 562.175781 Z M 194.058594 556.101562 " fill-opacity="1" fill-rule="nonzero"/></g><path fill="#2563eb" d="M 540.511719 468.960938 L 540.511719 485.882812 C 540.511719 487.417969 539.257812 488.65625 537.707031 488.65625 L 452.890625 488.65625 C 451.359375 488.65625 450.101562 487.402344 450.101562 485.882812 L 450.101562 468.960938 C 450.101562 467.425781 451.359375 466.1875 452.890625 466.1875 L 537.707031 466.1875 C 539.257812 466.1875 540.511719 467.441406 540.511719 468.960938 Z M 540.511719 468.960938 " fill-opacity="1" fill-rule="nonzero"/><path fill="#192351" d="M 540.511719 484.378906 L 540.511719 485.882812 C 540.511719 487.417969 539.257812 488.65625 537.707031 488.65625 L 452.890625 488.65625 C 451.359375 488.65625 450.101562 487.402344 450.101562 485.882812 L 450.101562 484.378906 Z M 540.511719 484.378906 " fill-opacity="1" fill-rule="nonzero"/><path fill="#192351" d="M 459.757812 482.457031 C 459.433594 482.457031 459.183594 482.195312 459.183594 481.886719 L 459.183594 471.964844 C 459.183594 471.640625 459.449219 471.394531 459.757812 471.394531 C 460.066406 471.394531 460.332031 471.65625 460.332031 471.964844 L 460.332031 481.886719 C 460.347656 482.195312 460.082031 482.457031 459.757812 482.457031 Z M 459.757812 482.457031 " fill-opacity="1" fill-rule="nonzero"/><path fill="#192351" d="M 471.613281 482.457031 C 471.289062 482.457031 471.039062 482.195312 471.039062 481.886719 L 471.039062 471.964844 C 471.039062 471.640625 471.300781 471.394531 471.613281 471.394531 C 471.921875 471.394531 472.1875 471.65625 472.1875 471.964844 L 472.1875 481.886719 C 472.1875 482.195312 471.9375 482.457031 471.613281 482.457031 Z M 471.613281 482.457031 " fill-opacity="1" fill-rule="nonzero"/><path fill="#192351" d="M 483.46875 482.457031 C 483.140625 482.457031 482.894531 482.195312 482.894531 481.886719 L 482.894531 471.964844 C 482.894531 471.640625 483.15625 471.394531 483.46875 471.394531 C 483.777344 471.394531 484.042969 471.65625 484.042969 471.964844 L 484.042969 481.886719 C 484.042969 482.195312 483.777344 482.457031 483.46875 482.457031 Z M 483.46875 482.457031 " fill-opacity="1" fill-rule="nonzero"/><path fill="#192351" d="M 495.308594 482.457031 C 494.980469 482.457031 494.734375 482.195312 494.734375 481.886719 L 494.734375 471.964844 C 494.734375 471.640625 494.996094 471.394531 495.308594 471.394531 C 495.617188 471.394531 495.882812 471.65625 495.882812 471.964844 L 495.882812 481.886719 C 495.898438 482.195312 495.632812 482.457031 495.308594 482.457031 Z M 495.308594 482.457031 " fill-opacity="1" fill-rule="nonzero"/><path fill="#192351" d="M 507.164062 482.457031 C 506.835938 482.457031 506.589844 482.195312 506.589844 481.886719 L 506.589844 471.964844 C 506.589844 471.640625 506.851562 471.394531 507.164062 471.394531 C 507.472656 471.394531 507.738281 471.65625 507.738281 471.964844 L 507.738281 481.886719 C 507.738281 482.195312 507.488281 482.457031 507.164062 482.457031 Z M 507.164062 482.457031 " fill-opacity="1" fill-rule="nonzero"/><path fill="#192351" d="M 519.019531 482.457031 C 518.691406 482.457031 518.445312 482.195312 518.445312 481.886719 L 518.445312 471.964844 C 518.445312 471.640625 518.707031 471.394531 519.019531 471.394531 C 519.328125 471.394531 519.59375 471.65625 519.59375 471.964844 L 519.59375 481.886719 C 519.59375 482.195312 519.328125 482.457031 519.019531 482.457031 Z M 519.019531 482.457031 " fill-opacity="1" fill-rule="nonzero"/><path fill="#192351" d="M 530.859375 482.457031 C 530.53125 482.457031 530.285156 482.195312 530.285156 481.886719 L 530.285156 471.964844 C 530.285156 471.640625 530.546875 471.394531 530.859375 471.394531 C 531.167969 471.394531 531.433594 471.65625 531.433594 471.964844 L 531.433594 481.886719 C 531.449219 482.195312 531.183594 482.457031 530.859375 482.457031 Z M 530.859375 482.457031 " fill-opacity="1" fill-rule="nonzero"/><path fill="#2563eb" d="M 529.679688 491.445312 L 529.679688 508.371094 C 529.679688 509.902344 528.425781 511.144531 526.875 511.144531 L 442.058594 511.144531 C 440.523438 511.144531 439.269531 509.886719 439.269531 508.371094 L 439.269531 491.445312 C 439.269531 489.914062 440.523438 488.671875 442.058594 488.671875 L 526.875 488.671875 C 528.441406 488.671875 529.679688 489.914062 529.679688 491.445312 Z M 529.679688 491.445312 " fill-opacity="1" fill-rule="nonzero"/><path fill="#192351" d="M 529.679688 506.867188 L 529.679688 508.371094 C 529.679688 509.902344 528.425781 511.144531 526.875 511.144531 L 442.058594 511.144531 C 440.523438 511.144531 439.269531 509.886719 439.269531 508.371094 L 439.269531 506.867188 Z M 529.679688 506.867188 " fill-opacity="1" fill-rule="nonzero"/><path fill="#192351" d="M 448.941406 504.945312 C 448.613281 504.945312 448.367188 504.679688 448.367188 504.371094 L 448.367188 494.453125 C 448.367188 494.128906 448.628906 493.878906 448.941406 493.878906 C 449.25 493.878906 449.511719 494.144531 449.511719 494.453125 L 449.511719 504.371094 C 449.511719 504.679688 449.25 504.945312 448.941406 504.945312 Z M 448.941406 504.945312 " fill-opacity="1" fill-rule="nonzero"/><path fill="#192351" d="M 460.796875 504.945312 C 460.46875 504.945312 460.222656 504.679688 460.222656 504.371094 L 460.222656 494.453125 C 460.222656 494.128906 460.484375 493.878906 460.796875 493.878906 C 461.105469 493.878906 461.367188 494.144531 461.367188 494.453125 L 461.367188 504.371094 C 461.367188 504.679688 461.105469 504.945312 460.796875 504.945312 Z M 460.796875 504.945312 " fill-opacity="1" fill-rule="nonzero"/><path fill="#192351" d="M 472.636719 504.945312 C 472.308594 504.945312 472.0625 504.679688 472.0625 504.371094 L 472.0625 494.453125 C 472.0625 494.128906 472.324219 493.878906 472.636719 493.878906 C 472.945312 493.878906 473.207031 494.144531 473.207031 494.453125 L 473.207031 504.371094 C 473.222656 504.679688 472.960938 504.945312 472.636719 504.945312 Z M 472.636719 504.945312 " fill-opacity="1" fill-rule="nonzero"/><path fill="#192351" d="M 484.492188 504.945312 C 484.164062 504.945312 483.917969 504.679688 483.917969 504.371094 L 483.917969 494.453125 C 483.917969 494.128906 484.179688 493.878906 484.492188 493.878906 C 484.800781 493.878906 485.0625 494.144531 485.0625 494.453125 L 485.0625 504.371094 C 485.0625 504.679688 484.816406 504.945312 484.492188 504.945312 Z M 484.492188 504.945312 " fill-opacity="1" fill-rule="nonzero"/><path fill="#192351" d="M 496.347656 504.945312 C 496.019531 504.945312 495.773438 504.679688 495.773438 504.371094 L 495.773438 494.453125 C 495.773438 494.128906 496.035156 493.878906 496.347656 493.878906 C 496.65625 493.878906 496.917969 494.144531 496.917969 494.453125 L 496.917969 504.371094 C 496.917969 504.679688 496.65625 504.945312 496.347656 504.945312 Z M 496.347656 504.945312 " fill-opacity="1" fill-rule="nonzero"/><path fill="#192351" d="M 508.1875 504.945312 C 507.859375 504.945312 507.613281 504.679688 507.613281 504.371094 L 507.613281 494.453125 C 507.613281 494.128906 507.875 493.878906 508.1875 493.878906 C 508.496094 493.878906 508.757812 494.144531 508.757812 494.453125 L 508.757812 504.371094 C 508.773438 504.679688 508.511719 504.945312 508.1875 504.945312 Z M 508.1875 504.945312 " fill-opacity="1" fill-rule="nonzero"/><path fill="#192351" d="M 520.042969 504.945312 C 519.714844 504.945312 519.46875 504.679688 519.46875 504.371094 L 519.46875 494.453125 C 519.46875 494.128906 519.730469 493.878906 520.042969 493.878906 C 520.351562 493.878906 520.613281 494.144531 520.613281 494.453125 L 520.613281 504.371094 C 520.613281 504.679688 520.367188 504.945312 520.042969 504.945312 Z M 520.042969 504.945312 " fill-opacity="1" fill-rule="nonzero"/><path fill="#2563eb" d="M 537.242188 513.933594 L 537.242188 530.855469 C 537.242188 532.390625 535.988281 533.628906 534.4375 533.628906 L 449.621094 533.628906 C 448.085938 533.628906 446.832031 532.375 446.832031 530.855469 L 446.832031 513.933594 C 446.832031 512.398438 448.085938 511.160156 449.621094 511.160156 L 534.4375 511.160156 C 535.988281 511.144531 537.242188 512.398438 537.242188 513.933594 Z M 537.242188 513.933594 " fill-opacity="1" fill-rule="nonzero"/><path fill="#192351" d="M 537.242188 529.351562 L 537.242188 530.855469 C 537.242188 532.390625 535.988281 533.628906 534.4375 533.628906 L 449.621094 533.628906 C 448.085938 533.628906 446.832031 532.375 446.832031 530.855469 L 446.832031 529.351562 Z M 537.242188 529.351562 " fill-opacity="1" fill-rule="nonzero"/><path fill="#192351" d="M 456.488281 527.414062 C 456.160156 527.414062 455.914062 527.152344 455.914062 526.84375 L 455.914062 516.925781 C 455.914062 516.597656 456.175781 516.351562 456.488281 516.351562 C 456.796875 516.351562 457.0625 516.613281 457.0625 516.925781 L 457.0625 526.84375 C 457.078125 527.167969 456.8125 527.414062 456.488281 527.414062 Z M 456.488281 527.414062 " fill-opacity="1" fill-rule="nonzero"/><path fill="#192351" d="M 468.34375 527.414062 C 468.015625 527.414062 467.769531 527.152344 467.769531 526.84375 L 467.769531 516.925781 C 467.769531 516.597656 468.03125 516.351562 468.34375 516.351562 C 468.652344 516.351562 468.917969 516.613281 468.917969 516.925781 L 468.917969 526.84375 C 468.929688 527.167969 468.667969 527.414062 468.34375 527.414062 Z M 468.34375 527.414062 " fill-opacity="1" fill-rule="nonzero"/><path fill="#192351" d="M 480.199219 527.414062 C 479.871094 527.414062 479.625 527.152344 479.625 526.84375 L 479.625 516.925781 C 479.625 516.597656 479.886719 516.351562 480.199219 516.351562 C 480.507812 516.351562 480.769531 516.613281 480.769531 516.925781 L 480.769531 526.84375 C 480.769531 527.167969 480.507812 527.414062 480.199219 527.414062 Z M 480.199219 527.414062 " fill-opacity="1" fill-rule="nonzero"/><path fill="#192351" d="M 492.039062 527.414062 C 491.710938 527.414062 491.464844 527.152344 491.464844 526.84375 L 491.464844 516.925781 C 491.464844 516.597656 491.726562 516.351562 492.039062 516.351562 C 492.347656 516.351562 492.613281 516.613281 492.613281 516.925781 L 492.613281 526.84375 C 492.625 527.167969 492.363281 527.414062 492.039062 527.414062 Z M 492.039062 527.414062 " fill-opacity="1" fill-rule="nonzero"/><path fill="#192351" d="M 503.894531 527.414062 C 503.566406 527.414062 503.320312 527.152344 503.320312 526.84375 L 503.320312 516.925781 C 503.320312 516.597656 503.582031 516.351562 503.894531 516.351562 C 504.203125 516.351562 504.464844 516.613281 504.464844 516.925781 L 504.464844 526.84375 C 504.480469 527.167969 504.21875 527.414062 503.894531 527.414062 Z M 503.894531 527.414062 " fill-opacity="1" fill-rule="nonzero"/><path fill="#192351" d="M 515.75 527.414062 C 515.421875 527.414062 515.175781 527.152344 515.175781 526.84375 L 515.175781 516.925781 C 515.175781 516.597656 515.4375 516.351562 515.75 516.351562 C 516.058594 516.351562 516.320312 516.613281 516.320312 516.925781 L 516.320312 526.84375 C 516.320312 527.167969 516.058594 527.414062 515.75 527.414062 Z M 515.75 527.414062 " fill-opacity="1" fill-rule="nonzero"/><path fill="#192351" d="M 527.605469 527.414062 C 527.277344 527.414062 527.03125 527.152344 527.03125 526.84375 L 527.03125 516.925781 C 527.03125 516.597656 527.292969 516.351562 527.605469 516.351562 C 527.914062 516.351562 528.175781 516.613281 528.175781 516.925781 L 528.175781 526.84375 C 528.175781 527.167969 527.914062 527.414062 527.605469 527.414062 Z M 527.605469 527.414062 " fill-opacity="1" fill-rule="nonzero"/><path fill="#2563eb" d="M 540.511719 536.417969 L 540.511719 553.34375 C 540.511719 554.875 539.257812 556.117188 537.707031 556.117188 L 452.890625 556.117188 C 451.359375 556.117188 450.101562 554.863281 450.101562 553.34375 L 450.101562 536.417969 C 450.101562 534.886719 451.359375 533.644531 452.890625 533.644531 L 537.707031 533.644531 C 539.257812 533.628906 540.511719 534.886719 540.511719 536.417969 Z M 540.511719 536.417969 " fill-opacity="1" fill-rule="nonzero"/><path fill="#192351" d="M 540.511719 551.824219 L 540.511719 553.328125 C 540.511719 554.859375 539.257812 556.101562 537.707031 556.101562 L 452.890625 556.101562 C 451.359375 556.101562 450.101562 554.847656 450.101562 553.328125 L 450.101562 551.824219 Z M 540.511719 551.824219 " fill-opacity="1" fill-rule="nonzero"/><path fill="#192351" d="M 459.757812 549.902344 C 459.433594 549.902344 459.183594 549.640625 459.183594 549.328125 L 459.183594 539.410156 C 459.183594 539.085938 459.449219 538.835938 459.757812 538.835938 C 460.066406 538.835938 460.332031 539.101562 460.332031 539.410156 L 460.332031 549.328125 C 460.347656 549.640625 460.082031 549.902344 459.757812 549.902344 Z M 459.757812 549.902344 " fill-opacity="1" fill-rule="nonzero"/><path fill="#192351" d="M 471.613281 549.902344 C 471.289062 549.902344 471.039062 549.640625 471.039062 549.328125 L 471.039062 539.410156 C 471.039062 539.085938 471.300781 538.835938 471.613281 538.835938 C 471.921875 538.835938 472.1875 539.101562 472.1875 539.410156 L 472.1875 549.328125 C 472.1875 549.640625 471.9375 549.902344 471.613281 549.902344 Z M 471.613281 549.902344 " fill-opacity="1" fill-rule="nonzero"/><path fill="#192351" d="M 483.46875 549.902344 C 483.140625 549.902344 482.894531 549.640625 482.894531 549.328125 L 482.894531 539.410156 C 482.894531 539.085938 483.15625 538.835938 483.46875 538.835938 C 483.777344 538.835938 484.042969 539.101562 484.042969 539.410156 L 484.042969 549.328125 C 484.042969 549.640625 483.777344 549.902344 483.46875 549.902344 Z M 483.46875 549.902344 " fill-opacity="1" fill-rule="nonzero"/><path fill="#192351" d="M 495.308594 549.902344 C 494.980469 549.902344 494.734375 549.640625 494.734375 549.328125 L 494.734375 539.410156 C 494.734375 539.085938 494.996094 538.835938 495.308594 538.835938 C 495.617188 538.835938 495.882812 539.101562 495.882812 539.410156 L 495.882812 549.328125 C 495.898438 549.640625 495.632812 549.902344 495.308594 549.902344 Z M 495.308594 549.902344 " fill-opacity="1" fill-rule="nonzero"/><path fill="#192351" d="M 507.164062 549.902344 C 506.835938 549.902344 506.589844 549.640625 506.589844 549.328125 L 506.589844 539.410156 C 506.589844 539.085938 506.851562 538.835938 507.164062 538.835938 C 507.472656 538.835938 507.738281 539.101562 507.738281 539.410156 L 507.738281 549.328125 C 507.738281 549.640625 507.488281 549.902344 507.164062 549.902344 Z M 507.164062 549.902344 " fill-opacity="1" fill-rule="nonzero"/><path fill="#192351" d="M 519.019531 549.902344 C 518.691406 549.902344 518.445312 549.640625 518.445312 549.328125 L 518.445312 539.410156 C 518.445312 539.085938 518.707031 538.835938 519.019531 538.835938 C 519.328125 538.835938 519.59375 539.101562 519.59375 539.410156 L 519.59375 549.328125 C 519.59375 549.640625 519.328125 549.902344 519.019531 549.902344 Z M 519.019531 549.902344 " fill-opacity="1" fill-rule="nonzero"/><path fill="#192351" d="M 530.859375 549.902344 C 530.53125 549.902344 530.285156 549.640625 530.285156 549.328125 L 530.285156 539.410156 C 530.285156 539.085938 530.546875 538.835938 530.859375 538.835938 C 531.167969 538.835938 531.433594 539.101562 531.433594 539.410156 L 531.433594 549.328125 C 531.449219 549.640625 531.183594 549.902344 530.859375 549.902344 Z M 530.859375 549.902344 " fill-opacity="1" fill-rule="nonzero"/><path fill="#2563eb" d="M 554.445312 491.445312 L 554.445312 508.371094 C 554.445312 509.902344 555.699219 511.144531 557.25 511.144531 L 642.066406 511.144531 C 643.601562 511.144531 644.855469 509.886719 644.855469 508.371094 L 644.855469 491.445312 C 644.855469 489.914062 643.601562 488.671875 642.066406 488.671875 L 557.25 488.671875 C 555.683594 488.671875 554.445312 489.914062 554.445312 491.445312 Z M 554.445312 491.445312 " fill-opacity="1" fill-rule="nonzero"/><path fill="#192351" d="M 554.445312 506.867188 L 554.445312 508.371094 C 554.445312 509.902344 555.699219 511.144531 557.25 511.144531 L 642.066406 511.144531 C 643.601562 511.144531 644.855469 509.886719 644.855469 508.371094 L 644.855469 506.867188 Z M 554.445312 506.867188 " fill-opacity="1" fill-rule="nonzero"/><path fill="#192351" d="M 635.1875 504.945312 C 634.859375 504.945312 634.613281 504.679688 634.613281 504.371094 L 634.613281 494.453125 C 634.613281 494.128906 634.875 493.878906 635.1875 493.878906 C 635.496094 493.878906 635.757812 494.144531 635.757812 494.453125 L 635.757812 504.371094 C 635.773438 504.679688 635.511719 504.945312 635.1875 504.945312 Z M 635.1875 504.945312 " fill-opacity="1" fill-rule="nonzero"/><path fill="#192351" d="M 623.347656 504.945312 C 623.019531 504.945312 622.773438 504.679688 622.773438 504.371094 L 622.773438 494.453125 C 622.773438 494.128906 623.035156 493.878906 623.347656 493.878906 C 623.65625 493.878906 623.917969 494.144531 623.917969 494.453125 L 623.917969 504.371094 C 623.917969 504.679688 623.65625 504.945312 623.347656 504.945312 Z M 623.347656 504.945312 " fill-opacity="1" fill-rule="nonzero"/><path fill="#192351" d="M 611.492188 504.945312 C 611.164062 504.945312 610.917969 504.679688 610.917969 504.371094 L 610.917969 494.453125 C 610.917969 494.128906 611.179688 493.878906 611.492188 493.878906 C 611.800781 493.878906 612.0625 494.144531 612.0625 494.453125 L 612.0625 504.371094 C 612.0625 504.679688 611.800781 504.945312 611.492188 504.945312 Z M 611.492188 504.945312 " fill-opacity="1" fill-rule="nonzero"/><path fill="#192351" d="M 599.636719 504.945312 C 599.308594 504.945312 599.0625 504.679688 599.0625 504.371094 L 599.0625 494.453125 C 599.0625 494.128906 599.324219 493.878906 599.636719 493.878906 C 599.945312 493.878906 600.207031 494.144531 600.207031 494.453125 L 600.207031 504.371094 C 600.207031 504.679688 599.960938 504.945312 599.636719 504.945312 Z M 599.636719 504.945312 " fill-opacity="1" fill-rule="nonzero"/><path fill="#192351" d="M 587.78125 504.945312 C 587.453125 504.945312 587.207031 504.679688 587.207031 504.371094 L 587.207031 494.453125 C 587.207031 494.128906 587.46875 493.878906 587.78125 493.878906 C 588.089844 493.878906 588.351562 494.144531 588.351562 494.453125 L 588.351562 504.371094 C 588.367188 504.679688 588.105469 504.945312 587.78125 504.945312 Z M 587.78125 504.945312 " fill-opacity="1" fill-rule="nonzero"/><path fill="#192351" d="M 575.941406 504.945312 C 575.613281 504.945312 575.367188 504.679688 575.367188 504.371094 L 575.367188 494.453125 C 575.367188 494.128906 575.628906 493.878906 575.941406 493.878906 C 576.25 493.878906 576.511719 494.144531 576.511719 494.453125 L 576.511719 504.371094 C 576.511719 504.679688 576.25 504.945312 575.941406 504.945312 Z M 575.941406 504.945312 " fill-opacity="1" fill-rule="nonzero"/><path fill="#192351" d="M 564.085938 504.945312 C 563.757812 504.945312 563.511719 504.679688 563.511719 504.371094 L 563.511719 494.453125 C 563.511719 494.128906 563.773438 493.878906 564.085938 493.878906 C 564.394531 493.878906 564.65625 494.144531 564.65625 494.453125 L 564.65625 504.371094 C 564.65625 504.679688 564.410156 504.945312 564.085938 504.945312 Z M 564.085938 504.945312 " fill-opacity="1" fill-rule="nonzero"/><path fill="#2563eb" d="M 540.746094 513.933594 L 540.746094 530.855469 C 540.746094 532.390625 542 533.628906 543.550781 533.628906 L 628.367188 533.628906 C 629.902344 533.628906 631.15625 532.375 631.15625 530.855469 L 631.15625 513.933594 C 631.15625 512.398438 629.902344 511.160156 628.367188 511.160156 L 543.550781 511.160156 C 542 511.144531 540.746094 512.398438 540.746094 513.933594 Z M 540.746094 513.933594 " fill-opacity="1" fill-rule="nonzero"/><path fill="#192351" d="M 540.746094 529.351562 L 540.746094 530.855469 C 540.746094 532.390625 542 533.628906 543.550781 533.628906 L 628.367188 533.628906 C 629.902344 533.628906 631.15625 532.375 631.15625 530.855469 L 631.15625 529.351562 Z M 540.746094 529.351562 " fill-opacity="1" fill-rule="nonzero"/><path fill="#192351" d="M 621.5 527.414062 C 621.175781 527.414062 620.929688 527.152344 620.929688 526.84375 L 620.929688 516.925781 C 620.929688 516.597656 621.191406 516.351562 621.5 516.351562 C 621.8125 516.351562 622.074219 516.613281 622.074219 516.925781 L 622.074219 526.84375 C 622.074219 527.167969 621.828125 527.414062 621.5 527.414062 Z M 621.5 527.414062 " fill-opacity="1" fill-rule="nonzero"/><path fill="#192351" d="M 609.644531 527.414062 C 609.320312 527.414062 609.074219 527.152344 609.074219 526.84375 L 609.074219 516.925781 C 609.074219 516.597656 609.335938 516.351562 609.644531 516.351562 C 609.957031 516.351562 610.21875 516.613281 610.21875 516.925781 L 610.21875 526.84375 C 610.234375 527.167969 609.972656 527.414062 609.644531 527.414062 Z M 609.644531 527.414062 " fill-opacity="1" fill-rule="nonzero"/><path fill="#192351" d="M 597.804688 527.414062 C 597.480469 527.414062 597.234375 527.152344 597.234375 526.84375 L 597.234375 516.925781 C 597.234375 516.597656 597.496094 516.351562 597.804688 516.351562 C 598.117188 516.351562 598.378906 516.613281 598.378906 516.925781 L 598.378906 526.84375 C 598.378906 527.167969 598.117188 527.414062 597.804688 527.414062 Z M 597.804688 527.414062 " fill-opacity="1" fill-rule="nonzero"/><path fill="#192351" d="M 585.949219 527.414062 C 585.625 527.414062 585.378906 527.152344 585.378906 526.84375 L 585.378906 516.925781 C 585.378906 516.597656 585.640625 516.351562 585.949219 516.351562 C 586.261719 516.351562 586.523438 516.613281 586.523438 516.925781 L 586.523438 526.84375 C 586.523438 527.167969 586.261719 527.414062 585.949219 527.414062 Z M 585.949219 527.414062 " fill-opacity="1" fill-rule="nonzero"/><path fill="#192351" d="M 574.097656 527.414062 C 573.769531 527.414062 573.523438 527.152344 573.523438 526.84375 L 573.523438 516.925781 C 573.523438 516.597656 573.785156 516.351562 574.097656 516.351562 C 574.40625 516.351562 574.667969 516.613281 574.667969 516.925781 L 574.667969 526.84375 C 574.683594 527.167969 574.421875 527.414062 574.097656 527.414062 Z M 574.097656 527.414062 " fill-opacity="1" fill-rule="nonzero"/><path fill="#192351" d="M 562.242188 527.414062 C 561.914062 527.414062 561.667969 527.152344 561.667969 526.84375 L 561.667969 516.925781 C 561.667969 516.597656 561.929688 516.351562 562.242188 516.351562 C 562.550781 516.351562 562.8125 516.613281 562.8125 516.925781 L 562.8125 526.84375 C 562.828125 527.167969 562.566406 527.414062 562.242188 527.414062 Z M 562.242188 527.414062 " fill-opacity="1" fill-rule="nonzero"/><path fill="#192351" d="M 550.402344 527.414062 C 550.074219 527.414062 549.828125 527.152344 549.828125 526.84375 L 549.828125 516.925781 C 549.828125 516.597656 550.089844 516.351562 550.402344 516.351562 C 550.710938 516.351562 550.972656 516.613281 550.972656 516.925781 L 550.972656 526.84375 C 550.972656 527.167969 550.710938 527.414062 550.402344 527.414062 Z M 550.402344 527.414062 " fill-opacity="1" fill-rule="nonzero"/><path fill="#2563eb" d="M 543.613281 536.417969 L 543.613281 553.34375 C 543.613281 554.875 544.867188 556.117188 546.417969 556.117188 L 631.234375 556.117188 C 632.769531 556.117188 634.023438 554.863281 634.023438 553.34375 L 634.023438 536.417969 C 634.023438 534.886719 632.769531 533.644531 631.234375 533.644531 L 546.417969 533.644531 C 544.867188 533.628906 543.613281 534.886719 543.613281 536.417969 Z M 543.613281 536.417969 " fill-opacity="1" fill-rule="nonzero"/><path fill="#192351" d="M 543.613281 551.824219 L 543.613281 553.328125 C 543.613281 554.859375 544.867188 556.101562 546.417969 556.101562 L 631.234375 556.101562 C 632.769531 556.101562 634.023438 554.847656 634.023438 553.328125 L 634.023438 551.824219 Z M 543.613281 551.824219 " fill-opacity="1" fill-rule="nonzero"/><path fill="#192351" d="M 624.367188 549.902344 C 624.042969 549.902344 623.796875 549.640625 623.796875 549.328125 L 623.796875 539.410156 C 623.796875 539.085938 624.058594 538.835938 624.367188 538.835938 C 624.679688 538.835938 624.941406 539.101562 624.941406 539.410156 L 624.941406 549.328125 C 624.941406 549.640625 624.679688 549.902344 624.367188 549.902344 Z M 624.367188 549.902344 " fill-opacity="1" fill-rule="nonzero"/><path fill="#192351" d="M 612.511719 549.902344 C 612.1875 549.902344 611.941406 549.640625 611.941406 549.328125 L 611.941406 539.410156 C 611.941406 539.085938 612.203125 538.835938 612.511719 538.835938 C 612.824219 538.835938 613.085938 539.101562 613.085938 539.410156 L 613.085938 549.328125 C 613.085938 549.640625 612.839844 549.902344 612.511719 549.902344 Z M 612.511719 549.902344 " fill-opacity="1" fill-rule="nonzero"/><path fill="#192351" d="M 600.65625 549.902344 C 600.332031 549.902344 600.085938 549.640625 600.085938 549.328125 L 600.085938 539.410156 C 600.085938 539.085938 600.347656 538.835938 600.65625 538.835938 C 600.96875 538.835938 601.230469 539.101562 601.230469 539.410156 L 601.230469 549.328125 C 601.246094 549.640625 600.984375 549.902344 600.65625 549.902344 Z M 600.65625 549.902344 " fill-opacity="1" fill-rule="nonzero"/><path fill="#192351" d="M 588.816406 549.902344 C 588.492188 549.902344 588.246094 549.640625 588.246094 549.328125 L 588.246094 539.410156 C 588.246094 539.085938 588.507812 538.835938 588.816406 538.835938 C 589.128906 538.835938 589.390625 539.101562 589.390625 539.410156 L 589.390625 549.328125 C 589.390625 549.640625 589.128906 549.902344 588.816406 549.902344 Z M 588.816406 549.902344 " fill-opacity="1" fill-rule="nonzero"/><path fill="#192351" d="M 576.960938 549.902344 C 576.636719 549.902344 576.390625 549.640625 576.390625 549.328125 L 576.390625 539.410156 C 576.390625 539.085938 576.652344 538.835938 576.960938 538.835938 C 577.273438 538.835938 577.535156 539.101562 577.535156 539.410156 L 577.535156 549.328125 C 577.535156 549.640625 577.273438 549.902344 576.960938 549.902344 Z M 576.960938 549.902344 " fill-opacity="1" fill-rule="nonzero"/><path fill="#192351" d="M 565.105469 549.902344 C 564.78125 549.902344 564.535156 549.640625 564.535156 549.328125 L 564.535156 539.410156 C 564.535156 539.085938 564.796875 538.835938 565.105469 538.835938 C 565.417969 538.835938 565.679688 539.101562 565.679688 539.410156 L 565.679688 549.328125 C 565.695312 549.640625 565.433594 549.902344 565.105469 549.902344 Z M 565.105469 549.902344 " fill-opacity="1" fill-rule="nonzero"/><path fill="#192351" d="M 553.253906 549.902344 C 552.925781 549.902344 552.679688 549.640625 552.679688 549.328125 L 552.679688 539.410156 C 552.679688 539.085938 552.941406 538.835938 553.253906 538.835938 C 553.5625 538.835938 553.824219 539.101562 553.824219 539.410156 L 553.824219 549.328125 C 553.839844 549.640625 553.578125 549.902344 553.253906 549.902344 Z M 553.253906 549.902344 " fill-opacity="1" fill-rule="nonzero"/><path fill="#2563eb" d="M 773.238281 204.605469 L 776.972656 208.34375 L 759.988281 225.328125 L 756.25 221.59375 Z M 773.238281 204.605469 " fill-opacity="1" fill-rule="nonzero"/><path fill="#2563eb" d="M 776.988281 221.601562 L 773.25 225.339844 L 756.265625 208.355469 L 760.003906 204.617188 Z M 776.988281 221.601562 " fill-opacity="1" fill-rule="nonzero"/><path fill="#dae4fe" d="M 788.308594 130.886719 L 790.863281 133.441406 L 779.222656 145.078125 L 776.671875 142.523438 Z M 788.308594 130.886719 " fill-opacity="1" fill-rule="nonzero"/><path fill="#dae4fe" d="M 790.871094 142.535156 L 788.316406 145.089844 L 776.679688 133.453125 L 779.234375 130.898438 Z M 790.871094 142.535156 " fill-opacity="1" fill-rule="nonzero"/></svg>